<?xml version="1.0" encoding="UTF-8" standalone="no" ?>
<!DOCTYPE svg PUBLIC "-//W3C//DTD SVG 1.1//EN" "http://www.w3.org/Graphics/SVG/1.1/DTD/svg11.dtd">
<svg xmlns="http://www.w3.org/2000/svg" xmlns:xlink="http://www.w3.org/1999/xlink" version="1.1" width="500" height="300" viewBox="0 0 500 300" xml:space="preserve">
<desc>Created with Fabric.js 3.6.6</desc>
<defs>
</defs>
<g transform="matrix(1 0 0 1 211.5 171)"  >
<g style=""   >
		<g transform="matrix(1 0 0 1 110 110)"  >
<rect style="stroke: none; stroke-width: 1; stroke-dasharray: none; stroke-linecap: butt; stroke-dashoffset: 0; stroke-linejoin: miter; stroke-miterlimit: 4; fill: rgb(255,255,255); fill-opacity: 0; fill-rule: nonzero; opacity: 1;"  x="-50" y="-50" rx="0" ry="0" width="100" height="100" />
</g>
		<g transform="matrix(1 0 0 1 360 360)"  >
<rect style="stroke: none; stroke-width: 1; stroke-dasharray: none; stroke-linecap: butt; stroke-dashoffset: 0; stroke-linejoin: miter; stroke-miterlimit: 4; fill: rgb(255,255,255); fill-rule: nonzero; opacity: 1; visibility: hidden;"  x="-300" y="-300" rx="0" ry="0" width="600" height="600" />
</g>
		<g transform="matrix(2.68 0 0 2.68 34.19 -17.27)"  >
<path style="stroke: none; stroke-width: 1; stroke-dasharray: none; stroke-linecap: butt; stroke-dashoffset: 0; stroke-linejoin: miter; stroke-miterlimit: 4; fill: rgb(255,255,255); fill-rule: nonzero; opacity: 1;"  transform=" translate(-100.5, -100.9)" d="M 105.6 52.7 C 103.8 51.2 102.1 50.300000000000004 100.5 50.300000000000004 C 98.9 50.400000000000006 97.2 51.300000000000004 95.4 52.7 C 84.2 61.900000000000006 79.10000000000001 73.7 78.4 87.9 C 78 95.4 77.10000000000001 102.7 88.60000000000001 100.5 C 89.9 100.3 91.7 100.3 92.9 101.1 C 93.9 101.69999999999999 94.80000000000001 102.5 95.5 103.5 C 98.5 107.8 97.7 112.6 96.5 117.4 C 94.7 124.4 94 131.6 94.9 138.70000000000002 C 95.5 143.60000000000002 94.30000000000001 151.8 100.5 151.50000000000003 C 106.8 151.80000000000004 105.5 143.60000000000002 106.1 138.70000000000002 C 107 131.50000000000003 106.3 124.40000000000002 104.5 117.40000000000002 C 103.3 112.60000000000002 102.4 107.70000000000002 105.5 103.50000000000001 C 106.2 102.60000000000001 107.1 101.80000000000001 108.1 101.10000000000001 C 109.3 100.30000000000001 111.1 100.30000000000001 112.39999999999999 100.50000000000001 C 123.89999999999999 102.60000000000001 122.99999999999999 95.30000000000001 122.6 87.90000000000002 C 121.89999999999999 73.70000000000002 116.8 61.90000000000002 105.6 52.70000000000002 z" stroke-linecap="round" />
</g>
		<g transform="matrix(2.68 0 0 2.68 -121.05 -13.55)"  >
<path style="stroke: none; stroke-width: 1; stroke-dasharray: none; stroke-linecap: butt; stroke-dashoffset: 0; stroke-linejoin: miter; stroke-miterlimit: 4; fill: rgb(255,255,255); fill-rule: nonzero; opacity: 1;"  transform=" translate(-42.46, -102.31)" d="M 57.6 128.4 C 59.1 126.10000000000001 61.300000000000004 121.9 61.2 117.2 C 61 111.4 57.2 106.60000000000001 55.800000000000004 105 C 55.50000000000001 104.7 55.1 104.7 54.800000000000004 105 C 53.6 106.5 50.400000000000006 111.1 50.6 116.8 C 50.7 120.5 53.6 125.2 55.4 127.6 C 55.199999999999996 129.6 55.199999999999996 131.6 55.4 133.1 L 55.4 133.29999999999998 C 51 130.89999999999998 46.5 127.79999999999998 42.5 123.59999999999998 C 42.4 123.39999999999998 42.3 123.29999999999998 42.1 123.19999999999997 C 40.6 121.59999999999998 39.2 119.99999999999997 38 118.09999999999998 C 37.7 117.69999999999997 37.5 117.29999999999998 37.2 116.89999999999998 C 36.400000000000006 114.29999999999998 36.7 111.39999999999998 38.1 108.99999999999997 C 40.800000000000004 108.29999999999997 44.5 106.79999999999997 47.2 103.79999999999997 C 51.2 99.49999999999997 51.800000000000004 93.29999999999997 51.900000000000006 91.29999999999997 C 51.900000000000006 90.89999999999996 51.60000000000001 90.69999999999997 51.2 90.69999999999997 C 49.2 90.99999999999997 43.2 92.19999999999997 39.2 96.49999999999997 C 36.6 99.19999999999997 35.800000000000004 104.69999999999997 36 108.09999999999997 C 35.3 109.39999999999996 34.8 110.89999999999996 34.6 112.29999999999997 C 32.1 107.29999999999997 30.400000000000002 101.69999999999997 29.700000000000003 95.69999999999996 C 29.800000000000004 92.69999999999996 31.400000000000002 89.99999999999996 33.6 88.79999999999995 C 35.7 88.69999999999996 39.1 88.19999999999996 41.7 86.09999999999995 C 44.900000000000006 83.49999999999996 45.900000000000006 79.19999999999995 46.2 77.39999999999995 C 46.300000000000004 76.99999999999994 46 76.59999999999995 45.5 76.59999999999995 C 43.8 76.59999999999995 39.3 76.69999999999995 36.2 79.29999999999995 C 33.400000000000006 81.59999999999995 32.300000000000004 85.19999999999996 31.900000000000002 87.29999999999995 C 30.900000000000002 87.99999999999996 30.000000000000004 88.89999999999995 29.400000000000002 89.89999999999995 C 29.200000000000003 84.29999999999995 29.8 78.19999999999995 31.000000000000004 71.79999999999995 C 32.800000000000004 71.29999999999995 36.6 69.69999999999996 39.1 66.79999999999995 C 42.300000000000004 63.19999999999995 42.9 58.399999999999956 42.9 56.49999999999996 C 42.9 56.09999999999996 42.5 55.799999999999955 42.1 55.799999999999955 C 40.2 56.19999999999995 36.2 57.59999999999995 32.7 60.99999999999996 C 30.1 63.59999999999996 29.300000000000004 67.39999999999996 29.1 69.49999999999996 C 27.1 78.99999999999996 26.5 87.69999999999996 27.5 95.59999999999997 L 27.5 95.79999999999997 C 26.4 94.39999999999996 25.2 93.09999999999997 24.1 91.99999999999997 C 24 89.59999999999997 23.400000000000002 85.79999999999997 21 82.79999999999997 C 17.9 78.89999999999996 12.8 77.69999999999997 11.1 77.39999999999996 C 10.799999999999999 77.29999999999997 10.5 77.59999999999997 10.4 77.89999999999996 C 10.3 79.59999999999997 10.4 84.49999999999996 13.4 88.29999999999997 C 15.200000000000001 90.59999999999997 19.1 92.19999999999997 21.700000000000003 92.89999999999996 C 24.200000000000003 94.59999999999997 27.700000000000003 99.29999999999997 28.6 101.99999999999996 C 29.900000000000002 107.69999999999996 32.1 112.89999999999996 35.2 117.59999999999995 L 35.2 117.69999999999995 C 35.5 118.19999999999995 35.800000000000004 118.69999999999995 36.1 119.09999999999995 L 37 120.29999999999995 C 35.7 119.89999999999995 34.3 119.49999999999996 32.9 119.49999999999996 C 32.8 119.29999999999995 32.8 119.09999999999995 32.6 118.89999999999996 C 30.700000000000003 116.59999999999997 27.200000000000003 113.29999999999997 23.5 112.69999999999996 C 17.9 111.69999999999996 12.6 114.29999999999995 10.7 115.39999999999996 C 10.299999999999999 115.59999999999997 10.2 116.19999999999996 10.5 116.59999999999997 C 12 118.29999999999997 16.1 122.39999999999996 21.7 123.39999999999996 C 25.5 123.99999999999996 29.2 122.99999999999996 31.799999999999997 121.99999999999996 C 31.9 121.89999999999996 31.999999999999996 121.79999999999995 32.099999999999994 121.79999999999995 C 35.3 121.49999999999996 39.599999999999994 123.79999999999995 40.49999999999999 124.49999999999996 C 45.99999999999999 130.39999999999995 52.39999999999999 134.29999999999995 58.099999999999994 136.89999999999995 C 57.49999999999999 137.29999999999995 56.49999999999999 137.69999999999996 54.99999999999999 137.99999999999994 C 49.99999999999999 134.59999999999994 42.3 133.99999999999994 38.599999999999994 134.79999999999995 C 30.799999999999994 136.59999999999997 25.699999999999996 142.19999999999996 24.099999999999994 144.39999999999995 C 23.799999999999994 144.79999999999995 23.899999999999995 145.29999999999995 24.399999999999995 145.49999999999994 C 26.799999999999994 146.69999999999993 34.599999999999994 150.09999999999994 42.39999999999999 148.29999999999995 C 48.19999999999999 146.89999999999995 52.69999999999999 143.09999999999997 55.29999999999999 140.19999999999996 L 55.29999999999999 140.09999999999997 C 56.49999999999999 139.89999999999998 57.59999999999999 139.59999999999997 58.49999999999999 139.19999999999996 C 59.39999999999999 138.79999999999995 59.99999999999999 138.29999999999995 60.39999999999999 137.89999999999995 C 67.89999999999999 140.99999999999994 73.8 141.89999999999995 74.3 141.89999999999995 L 74.6 139.69999999999996 C 74.5 139.69999999999996 66.89999999999999 138.59999999999997 58.099999999999994 134.29999999999995 C 57.89999999999999 134.29999999999995 57.3 132.19999999999996 57.599999999999994 128.39999999999995 z" stroke-linecap="round" />
</g>
		<g transform="matrix(2.68 0 0 2.68 188.87 -11.56)"  >
<path style="stroke: none; stroke-width: 1; stroke-dasharray: none; stroke-linecap: butt; stroke-dashoffset: 0; stroke-linejoin: miter; stroke-miterlimit: 4; fill: rgb(255,255,255); fill-rule: nonzero; opacity: 1;"  transform=" translate(-158.28, -103.05)" d="M 190.1 115.9 C 188.2 114.80000000000001 182.79999999999998 112.2 177.29999999999998 113.2 C 173.6 113.9 170.1 117.10000000000001 168.2 119.4 L 167.89999999999998 120 C 166.49999999999997 120 165.09999999999997 120.3 163.79999999999998 120.8 L 164.7 119.6 C 165 119.1 165.29999999999998 118.6 165.6 118.19999999999999 L 165.6 118.1 C 168.6 113.39999999999999 170.79999999999998 108.19999999999999 172.2 102.5 C 173.1 99.9 176.6 95.1 179.1 93.4 C 181.6 92.7 185.5 91.10000000000001 187.4 88.80000000000001 C 190.4 85.00000000000001 190.5 80.10000000000001 190.4 78.4 C 190.4 78.10000000000001 190.1 77.80000000000001 189.70000000000002 77.9 C 188.00000000000003 78.2 182.9 79.4 179.8 83.30000000000001 C 177.4 86.30000000000001 176.8 90.10000000000001 176.70000000000002 92.50000000000001 C 175.50000000000003 93.50000000000001 174.3 94.80000000000001 173.3 96.30000000000001 L 173.3 96.10000000000001 C 174.20000000000002 88.2 173.70000000000002 79.5 171.70000000000002 70 C 171.50000000000003 67.9 170.70000000000002 64.1 168.10000000000002 61.5 C 164.60000000000002 58.1 160.60000000000002 56.6 158.70000000000002 56.3 C 158.3 56.199999999999996 157.9 56.5 157.9 57 C 157.9 58.9 158.5 63.7 161.70000000000002 67.3 C 164.3 70.2 168.00000000000003 71.7 169.8 72.3 C 171.10000000000002 78.7 171.60000000000002 84.7 171.4 90.4 C 170.70000000000002 89.30000000000001 169.9 88.4 168.9 87.80000000000001 C 168.5 85.80000000000001 167.4 82.20000000000002 164.6 79.80000000000001 C 161.4 77.20000000000002 157 77.00000000000001 155.29999999999998 77.10000000000001 C 154.89999999999998 77.10000000000001 154.6 77.50000000000001 154.6 77.9 C 154.9 79.60000000000001 155.9 83.9 159.1 86.60000000000001 C 161.7 88.7 165.1 89.2 167.2 89.30000000000001 C 169.39999999999998 90.50000000000001 170.89999999999998 93.20000000000002 171.1 96.20000000000002 C 170.4 102.30000000000001 168.7 107.80000000000001 166.2 112.80000000000001 C 166 111.30000000000001 165.5 109.9 164.79999999999998 108.60000000000001 C 164.99999999999997 105.2 164.2 99.7 161.6 97.00000000000001 C 157.6 92.80000000000001 151.6 91.50000000000001 149.6 91.20000000000002 C 149.2 91.10000000000002 148.9 91.40000000000002 148.9 91.80000000000001 C 149 93.80000000000001 149.6 100.00000000000001 153.6 104.30000000000001 C 156.29999999999998 107.30000000000001 160 108.70000000000002 162.7 109.50000000000001 C 164.1 111.90000000000002 164.39999999999998 114.70000000000002 163.6 117.40000000000002 C 163.29999999999998 117.80000000000003 163.1 118.20000000000002 162.79999999999998 118.60000000000002 C 161.49999999999997 120.40000000000002 160.1 122.10000000000002 158.7 123.70000000000002 L 158.29999999999998 124.10000000000002 C 154.29999999999998 128.3 149.79999999999998 131.50000000000003 145.39999999999998 133.8 L 145.39999999999998 133.60000000000002 C 145.59999999999997 132.00000000000003 145.59999999999997 130.10000000000002 145.39999999999998 128.10000000000002 C 147.2 125.70000000000002 150.09999999999997 121.10000000000002 150.2 117.30000000000003 C 150.39999999999998 111.60000000000002 147.2 107.00000000000003 146 105.50000000000003 C 145.8 105.20000000000003 145.3 105.20000000000003 145 105.50000000000003 C 143.6 107.10000000000002 139.8 111.80000000000003 139.6 117.70000000000003 C 139.4 122.40000000000003 141.7 126.60000000000004 143.2 128.90000000000003 C 143.5 132.60000000000002 143 134.70000000000005 142.7 135.30000000000004 C 133.79999999999998 139.60000000000005 126.19999999999999 140.70000000000005 126.1 140.70000000000005 L 126.39999999999999 142.90000000000003 C 126.89999999999999 142.80000000000004 132.79999999999998 142.00000000000003 140.29999999999998 138.90000000000003 C 140.7 139.30000000000004 141.2 139.80000000000004 142.2 140.20000000000005 C 143.1 140.60000000000005 144.2 140.90000000000003 145.39999999999998 141.10000000000005 L 145.39999999999998 141.20000000000005 C 147.99999999999997 144.00000000000006 152.49999999999997 147.90000000000003 158.29999999999998 149.30000000000004 C 166.1 151.10000000000005 173.89999999999998 147.70000000000005 176.29999999999998 146.50000000000003 C 176.7 146.30000000000004 176.79999999999998 145.80000000000004 176.6 145.40000000000003 C 175 143.20000000000005 169.9 137.60000000000002 162.1 135.80000000000004 C 158.4 135.00000000000003 150.79999999999998 135.60000000000005 145.7 139.00000000000003 C 144.2 138.70000000000002 143.2 138.30000000000004 142.6 137.90000000000003 C 148.29999999999998 135.30000000000004 154.7 131.30000000000004 160.2 125.50000000000003 C 161.1 124.70000000000003 165.29999999999998 122.50000000000003 168.6 122.80000000000003 C 168.7 122.90000000000002 168.79999999999998 123.00000000000003 168.9 123.00000000000003 C 171.5 124.10000000000002 175.20000000000002 125.10000000000002 179 124.40000000000003 C 184.6 123.50000000000003 188.8 119.30000000000004 190.2 117.60000000000004 C 190.6 116.70000000000003 190.5 116.20000000000003 190.1 115.90000000000003 z" stroke-linecap="round" />
</g>
</g>
</g>
</svg>