<svg xmlns="http://www.w3.org/2000/svg" width="32" height="32" viewBox="0 0 32 32" style="width: 24px; height: 24px; color: rgb(255, 255, 255);"> <g fill="none" fill-rule="evenodd"> <g fill="currentColor" fill-rule="nonzero"> <g> <g> <path d="M14 0C6.28 0 0 5.8 0 12.93c.007 2.165.593 4.288 1.696 6.15L.028 26.59c-.095.427.06.871.398 1.148.339.277.804.34 1.204.162l6.914-3.072c1.738.685 3.589 1.035 5.456 1.033 7.72 0 14-5.8 14-12.93S21.72 0 14 0zm4.508 16.32H9.492c-.64 0-1.16-.52-1.16-1.16 0-.64.52-1.16 1.16-1.16h9.016c.64 0 1.16.52 1.16 1.16 0 .64-.52 1.16-1.16 1.16zm0-4.638H9.492c-.64 0-1.16-.519-1.16-1.16 0-.64.52-1.158 1.16-1.158h9.016c.64 0 1.16.519 1.16 1.159s-.52 1.159-1.16 1.159z" transform="translate(-2580 -734) translate(2580 734) translate(2 2)"></path> </g> </g> </g> </g> </svg>