<?xml version="1.0" encoding="utf-8"?>
<!-- Svg Vector Icons : http://www.onlinewebfonts.com/icon -->
<!DOCTYPE svg PUBLIC "-//W3C//DTD SVG 1.1//EN" "http://www.w3.org/Graphics/SVG/1.1/DTD/svg11.dtd">
<svg version="1.1" xmlns="http://www.w3.org/2000/svg" xmlns:xlink="http://www.w3.org/1999/xlink" x="0px" y="0px" viewBox="0 0 1000 1000" enable-background="new 0 0 1000 1000" xml:space="preserve">
<metadata> Svg Vector Icons : http://www.onlinewebfonts.com/icon </metadata>
<g><g transform="translate(0.000000,511.000000) scale(0.100000,-0.100000)"><path d="M2327.5,4486.4C1457.3,4320.6,736.7,3784.2,366,3019.9c-216.4-444.3-283.2-775.8-262.5-1316.8C128.9,996.3,356.8,478.3,893.2-85.7c847.2-890.9,4044.9-4185.3,4074.8-4196.9c71.4-27.6-142.7-241.7,2253.8,2242.3C8122-1110.2,8966.9-230.7,9105.1-90.3c382.2,400.6,584.8,748.2,722.9,1238.6c46,165.8,59.9,280.9,69.1,570.9c18.4,543.3-46,856.4-271.7,1316.8c-373,764.3-1137.3,1323.8-1977.6,1450.4c-948.5,145-1878.6-202.6-2488.6-932.4c-78.3-94.4-149.6-172.7-158.8-172.7c-9.2,0-66.8,62.2-131.2,138.1c-407.5,488.1-939.3,817.3-1537.9,948.5C3103.3,4516.3,2546.2,4527.8,2327.5,4486.4z M3160.9,4141.1c359.1-66.8,660.7-188.8,953.1-386.8c200.3-135.8,488.1-437.4,633.1-665.3c207.2-326.9,301.6-326.9,506.5,0c566.3,904.8,1701.3,1305.3,2718.9,960c1280-435.1,1926.9-1850.9,1418.2-3096.4c-101.3-250.9-237.1-467.3-405.2-653.8C8815,112.3,5324.9-3506.7,5129.2-3697.8l-128.9-124.3l-151.9,147.4C4625.1-3456.1,1187.9,107.7,1015.3,298.8c-416.7,462.7-640,1141.9-570.9,1756.6c117.4,1059,870.2,1876.3,1922.3,2083.5C2583,4182.5,2930.7,4182.5,3160.9,4141.1z"/></g></g>
</svg>