<svg>
    <path d="M99.999 180.333c-44.367 0-80.332-35.967-80.332-80.333s35.965-80.333 80.332-80.333S180.332 55.633 180.332 100s-35.966 80.333-80.333 80.333z" fill="#EAFFC4" clip-rule="evenodd" fill-rule="evenodd" data-color="1"></path>
    <path d="M125.962 105.992c3.123-7.336 4.708-13.986 4.708-19.772 0-16.878-13.759-30.611-30.67-30.611S69.33 69.341 69.33 86.22c0 5.786 1.585 12.437 4.71 19.772 2.48 5.82 5.933 12.091 10.262 18.639 5.692 8.606 11.433 15.444 13.781 18.146H83.297c-.58 0-1.053.361-1.053.807s.473.807 1.053.807h35.02c.582 0 1.053-.361 1.053-.807s-.471-.807-1.053-.807h-16.401c2.349-2.702 8.09-9.539 13.782-18.146 4.331-6.548 7.782-12.818 10.264-18.639zm-25.845-15.353c-.623 0-1.13.634-1.13 1.413v17.773a19.44 19.44 0 0 1-5.477-2.831c-3.849-2.874-5.801-6.729-5.801-11.461 0-9.922 8.629-23.144 11.485-27.248 2.856 4.102 11.483 17.321 11.483 27.248 0 4.732-1.95 8.587-5.799 11.461a19.202 19.202 0 0 1-3.632 2.114V92.052c0-.78-.506-1.413-1.129-1.413zm1.129 49.595v-28.763a21.53 21.53 0 0 0 4.927-2.709c3.075-2.275 6.741-6.417 6.741-13.229 0-12.534-12.293-29.09-12.815-29.79a1.132 1.132 0 0 0-.904-.447c-.359 0-.696.168-.904.447-.525.7-12.817 17.256-12.817 29.79 0 6.812 3.667 10.954 6.743 13.229 3.291 2.437 6.56 3.274 6.698 3.309.024.006.049.005.073.009v28.427c-2.641-3.091-7.791-9.378-12.892-17.095-9.55-14.443-14.597-27.305-14.597-37.193 0-15.685 12.787-28.447 28.502-28.447 15.717 0 28.504 12.762 28.504 28.447 0 9.888-5.049 22.749-14.597 37.193-4.962 7.503-9.959 13.645-12.662 16.822z" fill="#111111" clip-rule="evenodd" fill-rule="evenodd" data-color="2"></path>
</svg>