<?xml version="1.0" encoding="UTF-8"?>
<svg data-bbox="20 20 160 160" viewBox="0 0 200 200" height="200" width="200" xmlns="http://www.w3.org/2000/svg" data-type="color">
    <g>
        <path d="M100 180c-44.2 0-80-35.8-80-80s35.8-80 80-80 80 35.8 80 80-35.8 80-80 80z" fill-rule="evenodd" clip-rule="evenodd" fill="#EAFFC4" data-color="1"/>
        <path d="M132.1 81.5c-11.9-11.9-28.7-15.4-41-8.6-2.8-1.1-5.8-.7-8 1.1-2-1-3.3-2.5-4.2-4v-.3h-.2c-1.3-2.4-1.5-4.8-1.5-4.8 0-.5-.5-.9-1-.9s-.9.5-.9 1c0 .2.2 2.2 1.2 4.5-2.7 0-8.6.4-13.5 4.6-4.5 3.8-6.9 9.8-7.1 17.7v.9l.9.1c.1 0 .5.1 1.3.1 2.4 0 7.8-.5 12.5-4.4 4.2-3.5 6.9-8.7 7.9-15.7.8 1 1.9 1.9 3.2 2.7-1.5 2.1-1.8 4.9-.7 7.5-2.7 5-3.8 10.9-3.2 17.1.1.5.5.9 1 .8.5-.1.9-.5.8-1-.6-6 .5-11.7 3.2-16.4l.2-.4-.2-.4c-1.1-2.5-.7-5.1 1-6.8 1.7-1.7 4.4-2.1 6.8-1l.4.2.4-.2c11.5-6.6 27.9-3.2 39.2 8.1 11.2 11.3 14.6 27.8 8.1 39.3l-.2.4.2.4c1.1 2.5.7 5.1-1 6.8-1.7 1.7-4.4 2.1-6.8 1l-.4-.2-.4.2c-7.5 4.3-17.2 4.5-26.4.6 8.8-5.5 14.7-15.3 14.7-26.4v-.9H56.5v.9c0 17.1 13.9 31.1 31 31.1 5.1 0 10-1.3 14.2-3.5 5 2.3 10.2 3.5 15.2 3.5 4.9 0 9.6-1.1 13.7-3.4 3 1.2 6.3.6 8.5-1.6s2.7-5.5 1.5-8.5c6.9-12.5 3.4-29.3-8.5-41.2zm-62.6 5.4c-4.4 3.6-9.6 4-11.6 3.9.4-6.9 2.6-12.1 6.4-15.4 4.6-3.9 10.4-4.2 12.6-4.2-.9 7.2-3.4 12.4-7.4 15.7zm18 47.3c-15.7 0-28.6-12.6-29.1-28.3h58.1c-.4 15.7-13.3 28.3-29 28.3z" fill="#111111" data-color="2"/>
        <path d="M132.9 119.8c.1.1.3.1.5.1.3 0 .6-.2.8-.5 5.4-9.4 2.4-23.2-7.2-32.8-6.2-6.2-14.5-9.9-22.2-9.9-.5 0-.9.4-.9.9s.4.9.9.9c7.2 0 15 3.5 20.9 9.3 9 9 11.9 21.8 6.9 30.5-.3.6-.2 1.2.3 1.5z" fill="#111111" data-color="2"/>
    </g>
</svg>
