<?xml version="1.0" encoding="UTF-8"?>
<svg data-bbox="20 20 160 160" viewBox="0 0 200 200" height="200" width="200" xmlns="http://www.w3.org/2000/svg" data-type="color">
    <g>
        <path d="M100 180c-44.2 0-80-35.8-80-80s35.8-80 80-80 80 35.8 80 80-35.8 80-80 80z" fill-rule="evenodd" clip-rule="evenodd" fill="#EAFFC4" data-color="1"/>
        <path d="M99 141.6c-.5 0-.9-.4-.9-.9v-17.3l-28.7-21.3c-.4-.3-.5-.9-.2-1.3s.9-.5 1.3-.2L98 121.1V70.7c0-.5.4-.9.9-.9s.9.4.9.9v55.8l24.8-23.8c.4-.4.9-.3 1.3 0 .4.4.3.9 0 1.3l-26 25h-.1v11.6c.1.6-.3 1-.8 1z"/>
        <path d="M98.3 101.9h-.1c-4.7-.5-13.8-8.3-13.8-18.9 0-9.6 6.5-20.2 15.2-24.5.3-.2.7-.1 1 .1 7.7 6 13 15.3 13.4 23 .3 8.3-4.8 15.9-10 19.8-.4.3-1 .2-1.3-.2-.3-.4-.2-1 .2-1.3 4.9-3.6 9.6-10.6 9.3-18.2-.3-7.1-5.2-15.6-12.2-21.3-7.8 4.2-13.7 14-13.7 22.6 0 9.6 8.6 16.7 12.2 17.1.5.1.9.5.8 1-.1.5-.5.8-1 .8z"/>
        <path d="M118.8 122.7c-1.7 0-3.4-.2-5.3-.5-.5-.1-.8-.6-.7-1.1.1-.5.6-.8 1.1-.7 7 1.3 12.6 0 16.9-3.8 8.2-7.3 9-22 9-25.7-12.8-.2-21.7 3-26.3 9.4-5.1 7.1-3.1 15.6-2.9 16 .2.4.1.9-.3 1.1-.4.3-1 .2-1.3-.2-.4-.6-2.1-8.6 1.6-15.7 3.1-6 10.9-13 30.2-12.5.5 0 .9.4.9.9 0 .2.6 18.9-9.6 28-3.7 3.2-8.1 4.8-13.3 4.8z"/>
        <path d="M84.4 122.5c-3.8 0-10.2-.8-15.6-5.1-6.6-5.1-10-13.8-10.3-25.7 0-.4.3-.8.7-.9 10.4-2.1 20-.1 26.3 5.4 5.2 4.6 7.7 11.1 7.2 18.9 0 .5-.5.9-1 .9s-.9-.5-.9-1c.5-7.2-1.8-13.3-6.5-17.4-5.7-5-14.4-6.8-23.9-5.1.4 10.8 3.6 18.7 9.4 23.4 7.8 6.2 17.7 4.6 17.8 4.6.5-.1 1 .2 1.1.7.1.5-.2 1-.7 1.1-.2-.1-1.5.2-3.6.2z"/>
    </g>
</svg>
