<svg xmlns="http://www.w3.org/2000/svg" xmlns:xlink="http://www.w3.org/1999/xlink" width="7px" height="14px" viewBox="0 0 7 14" version="1.1" class="bm-icon"><g id="Page-1" stroke="none" stroke-width="1" fill="none" fill-rule="evenodd"><g id="Facebook" fill-rule="nonzero" fill="#a05941"><path class="social-icon" d="M1.7056255,13.995 L1.7056255,7.87191346 L-0.013,7.87191346 L-0.013,5.24773352 L1.7056255,5.24773352 L1.7056255,3.03729928 C1.7056255,1.45141987 2.92574502,-0.005 5.24397211,-0.005 C5.82615741,-0.0040764579 6.40791883,0.0265786066 6.987,0.086846298 L6.987,2.29378163 C6.987,2.29378163 6.1555757,2.28678382 5.38167131,2.28678382 C5.08691585,2.22563654 4.78101353,2.31330271 4.56286422,2.52143937 C4.34471491,2.72957603 4.24199758,3.03177462 4.28792131,3.33033271 L4.28792131,5.24773352 L6.86585956,5.24773352 L6.86585956,7.87191346 L4.28792131,7.87191346 L4.28792131,13.995 L1.71085458,13.995 L1.7056255,13.995 Z" id="F_copy_3"></path></g></g></svg>