<?xml version="1.0" ?><svg style="enable-background:new 0 0 100 100;" version="1.1" viewBox="0 0 100 100" xml:space="preserve" xmlns="http://www.w3.org/2000/svg" xmlns:xlink="http://www.w3.org/1999/xlink"><style type="text/css">
	.st0{fill:#231F20;}
	.st1{fill-rule:evenodd;clip-rule:evenodd;fill:#231F20;}
	.st2{fill-rule:evenodd;clip-rule:evenodd;}
</style><g id="Layer_3"/><g id="Layer_1"><path d="M66.8,75.4v-22c0,0-1.2-4.6-5.6-4.4c-4.4,0.2-5.8,0.9-7.8,3.3v23.1H42.1V40.5h11.2v5.1c0,0,3.6-7.1,11.2-6.6   c6.9,0.5,12.1,4.7,13.2,13.9H78v22.5H66.8z M28.7,36c-3.7,0-6.7-3-6.7-6.8c0-3.7,3-6.8,6.7-6.8s6.7,3,6.7,6.8   C35.4,32.9,32.4,36,28.7,36z M34.3,75.4H23.1V40.5h11.2V75.4z" id="linkedin"/></g></svg>