<?xml version="1.0" encoding="utf-8"?>
<!-- Generator: Adobe Illustrator 26.0.2, SVG Export Plug-In . SVG Version: 6.00 Build 0)  -->
<svg version="1.1" id="Layer_1" xmlns="http://www.w3.org/2000/svg" xmlns:xlink="http://www.w3.org/1999/xlink" x="0px" y="0px"
	 viewBox="0 0 24 24" style="enable-background:new 0 0 24 24;" xml:space="preserve">
<style type="text/css">
	.st0{clip-path:url(#SVGID_00000020390138364654212640000003945171909287474099_);}
</style>
<g>
	<defs>
		<rect id="SVGID_1_" width="24" height="24"/>
	</defs>
	<clipPath id="SVGID_00000107589401774067434690000005922290604176053404_">
		<use xlink:href="#SVGID_1_"  style="overflow:visible;"/>
	</clipPath>
	<path style="clip-path:url(#SVGID_00000107589401774067434690000005922290604176053404_);" d="M19.8459969,5.5949974
		c0,0.795002-0.6459999,1.4400005-1.4400005,1.4400005c-0.7950001,0-1.4400005-0.6459999-1.4400005-1.4400005
		c0-0.7939987,0.6459999-1.4389992,1.4400005-1.4389992C19.1989937,4.1549988,19.8459969,4.8009987,19.8459969,5.5949974z
		 M11.9999971,15.9999962c-2.2099991,0-3.999999-1.789999-3.999999-3.999999s1.79-3.999999,3.999999-3.999999
		s3.999999,1.79,3.999999,3.999999S14.2099972,15.9999962,11.9999971,15.9999962z M11.9999971,5.8379974
		c-3.4049997,0-6.1619987,2.7600002-6.1619987,6.1619997c0,3.4049997,2.7599993,6.1619997,6.1619987,6.1619997
		c3.4049997,0,6.1619997-2.7600002,6.1619997-6.1619997C18.1619968,8.5949974,15.4019966,5.8379974,11.9999971,5.8379974z
		 M11.9999971,2.1599998c3.2030001,0,3.5849991,0.0159988,4.8499994,0.0709991
		c1.1700001,0.0550003,1.8050003,0.2490005,2.2269993,0.4150009c0.5620003,0.2169991,0.9599991,0.4769993,1.382,0.8959999
		c0.4190006,0.4199982,0.6790009,0.8190002,0.895998,1.3809986c0.1639996,0.421999,0.3600025,1.0570011,0.4130001,2.2269993
		c0.057003,1.2660007,0.0699997,1.6459999,0.0699997,4.8499994s-0.0149994,3.5849991-0.0739994,4.8499994
		c-0.0610008,1.1700001-0.2559986,1.8050003-0.4209995,2.2269993c-0.2240009,0.5620003-0.4790001,0.9599991-0.8989983,1.382
		c-0.4190025,0.4190006-0.8240013,0.6790009-1.3800011,0.895998c-0.4200001,0.1639996-1.0649986,0.3600025-2.2349987,0.4130001
		c-1.2740002,0.057003-1.6490002,0.0699997-4.8589993,0.0699997c-3.2110004,0-3.5859995-0.0149994-4.8589993-0.0739994
		c-1.1709995-0.0610008-1.815999-0.2559986-2.2359991-0.4209995c-0.5690002-0.2240009-0.96-0.4790001-1.3789999-0.8989983
		c-0.4209998-0.4190025-0.6899998-0.8240013-0.8999996-1.3800011c-0.1650002-0.4200001-0.359-1.0649986-0.4199998-2.2349987
		c-0.0450001-1.2600002-0.0610001-1.6490002-0.0610001-4.8439999c0-3.1959991,0.016-3.5859985,0.0610001-4.8609982
		c0.0609999-1.1700001,0.2549996-1.8140011,0.4199998-2.2339993c0.2099998-0.5699997,0.4789999-0.960001,0.8999996-1.3810005
		C3.914999,3.0900002,4.3059988,2.8199997,4.874999,2.6110001C5.2949991,2.4449997,5.9259987,2.25,7.0959988,2.1899986
		c1.2749996-0.0449982,1.6499996-0.0599995,4.8589983-0.0599995L11.9999971,2.1599998z M11.9999971,0
		C8.7399979,0,8.3329983,0.0149994,7.0529981,0.0720005C5.7749987,0.132,4.9049988,0.3330002,4.1399989,0.6299992
		c-0.7889996,0.3059998-1.4589996,0.717001-2.1259995,1.3840008S0.9349998,3.3499985,0.6299999,4.1399994
		C0.3329999,4.9049988,0.131,5.7749977,0.072,7.0529976C0.012,8.3329983,0,8.7399979,0,11.9999971s0.015,3.6669989,0.072,4.9469995
		c0.06,1.2770004,0.2609999,2.1479988,0.5579999,2.9129982c0.3059999,0.7880001,0.7169998,1.4590015,1.3839996,2.1259995
		c0.6669998,0.6660004,1.3359995,1.0790005,2.1259995,1.3840008c0.7659998,0.2959995,1.6359997,0.4989986,2.9129992,0.5579987
		c1.2800002,0.0600014,1.6869998,0.0720005,4.9469991,0.0720005s3.6669989-0.0149994,4.9469995-0.0720005
		c1.2770004-0.0599995,2.1479988-0.2619991,2.9129982-0.5579987c0.7880001-0.3060017,1.4590015-0.7180004,2.1259995-1.3840008
		c0.6660004-0.6669979,1.0790005-1.335001,1.3840008-2.1259995c0.2959995-0.7649994,0.4989986-1.6359978,0.5579987-2.9129982
		c0.0600014-1.2800007,0.0720005-1.6870003,0.0720005-4.9469995s-0.0149994-3.6669989-0.0720005-4.9469995
		c-0.0599995-1.2769985-0.2619991-2.1489983-0.5579987-2.9129982c-0.3060017-0.7889996-0.7180004-1.4589996-1.3840008-2.1259995
		c-0.6669979-0.6669998-1.335001-1.0790005-2.1259995-1.3840008c-0.7649994-0.296999-1.6359978-0.4989986-2.9129982-0.5579987
		C15.666996,0.0119991,15.2599964,0,11.9999971,0z"/>
</g>
</svg>
