<svg preserveAspectRatio="xMidYMid meet" data-bbox="19.667 19.667 160.665 160.666" viewBox="19.667 19.667 160.665 160.666" height="200" width="200" xmlns="http://www.w3.org/2000/svg" data-type="color" role="presentation" aria-hidden="true" aria-labelledby="svgcid-5obxbzxqbn04"><defs><style>#comp-kr0d2s2y svg [data-color="1"] {fill: #E6FAC0;}
#comp-kr0d2s2y svg [data-color="2"] {fill: #000000;}</style></defs><title id="svgcid-5obxbzxqbn04"></title>
    <g>
        <path d="M99.999 180.333c-44.367 0-80.332-35.967-80.332-80.333s35.965-80.333 80.332-80.333S180.332 55.633 180.332 100s-35.966 80.333-80.333 80.333z" fill="#EAFFC4" clip-rule="evenodd" fill-rule="evenodd" data-color="1"></path>
        <path d="M98.992 141.761a.925.925 0 0 1-.924-.925v-17.362L69.323 102.08a.926.926 0 0 1-.19-1.294.929.929 0 0 1 1.294-.19l27.64 20.573V70.544a.925.925 0 1 1 1.848 0v56.058l24.875-23.922a.925.925 0 1 1 1.282 1.334l-26.104 25.105a.758.758 0 0 1-.053.046v11.673a.923.923 0 0 1-.923.923z" fill="#000000" data-color="2"></path>
        <path d="M98.324 101.928a.973.973 0 0 1-.107-.006c-4.763-.543-13.871-8.362-13.871-18.994 0-9.676 6.549-20.248 15.235-24.592a.929.929 0 0 1 .986.1c7.694 6.047 13.082 15.336 13.406 23.115.348 8.358-4.814 15.998-10.084 19.863a.924.924 0 1 1-1.092-1.492c4.873-3.574 9.648-10.618 9.329-18.295-.296-7.115-5.19-15.634-12.238-21.367-7.719 4.157-13.693 13.986-13.693 22.667 0 9.646 8.602 16.743 12.233 17.156a.924.924 0 0 1 .813 1.023.924.924 0 0 1-.917.822z" fill="#000000" data-color="2"></path>
        <path d="M118.852 122.832c-1.685 0-3.452-.166-5.299-.5a.924.924 0 1 1 .328-1.819c6.986 1.263 12.701-.034 16.984-3.854 8.25-7.361 8.992-22.118 9.04-25.795-12.867-.211-21.794 2.973-26.42 9.414-5.12 7.132-3.067 15.622-2.948 16.062a.923.923 0 0 1-.283 1.138.927.927 0 0 1-1.294-.19c-.45-.605-2.129-8.595 1.586-15.747 3.111-5.989 10.935-13.016 30.304-12.506a.924.924 0 0 1 .898.861c.012.184.614 18.956-9.63 28.124-3.579 3.202-8.026 4.812-13.266 4.812z" fill="#000000" data-color="2"></path>
        <path d="M84.321 122.564c-3.845 0-10.209-.771-15.711-5.082-6.596-5.169-10.084-13.859-10.369-25.829a.924.924 0 0 1 .743-.929c10.486-2.09 20.102-.124 26.379 5.386 5.225 4.587 7.711 11.162 7.187 19.014-.036.509-.489.88-.984.861a.925.925 0 0 1-.861-.984c.483-7.256-1.785-13.307-6.563-17.5-5.688-4.995-14.42-6.84-24.03-5.108.394 10.883 3.58 18.788 9.475 23.505 7.831 6.266 17.737 4.639 17.833 4.62a.933.933 0 0 1 1.091.716.919.919 0 0 1-.698 1.092c-.035.006-1.385.238-3.492.238z" fill="#000000" data-color="2"></path>
    </g>
</svg>