<?xml version="1.0" encoding="utf-8"?>
<!-- Generator: Adobe Illustrator 26.0.2, SVG Export Plug-In . SVG Version: 6.00 Build 0)  -->
<svg version="1.1" id="Layer_1" xmlns="http://www.w3.org/2000/svg" xmlns:xlink="http://www.w3.org/1999/xlink" x="0px" y="0px"
	 viewBox="0 0 24 24" style="enable-background:new 0 0 24 24;" xml:space="preserve">
<style type="text/css">
	.st0{clip-path:url(#SVGID_00000065058145388019029370000002685096829663261356_);}
</style>
<g>
	<defs>
		<rect id="SVGID_1_" width="24" height="24"/>
	</defs>
	<clipPath id="SVGID_00000170240584549576091560000016931150730669340833_">
		<use xlink:href="#SVGID_1_"  style="overflow:visible;"/>
	</clipPath>
	
		<rect x="3.5549991" y="8.9999981" style="clip-path:url(#SVGID_00000170240584549576091560000016931150730669340833_);" width="3.5639994" height="11.4519978"/>
	<path style="clip-path:url(#SVGID_00000170240584549576091560000016931150730669340833_);" d="M5.3369989,7.4329987
		c-1.1440001,0-2.0629997-0.9260006-2.0629997-2.0650005c0-1.1379986,0.9199996-2.0629978,2.0629997-2.0629978
		c1.1400003,0,2.0639997,0.9249992,2.0639997,2.0629978C7.4009986,6.5069981,6.4759984,7.4329987,5.3369989,7.4329987z"/>
	<path style="clip-path:url(#SVGID_00000170240584549576091560000016931150730669340833_);" d="M20.4469948,20.4519958h-3.5539989
		v-5.5689983c0-1.3280001-0.0270004-3.0370007-1.8519993-3.0370007c-1.8529997,0-2.1359997,1.4449997-2.1359997,2.9390001v5.6669989
		H9.3509979V8.9999981h3.4139996v1.5609989h0.0459995c0.4769993-0.8999996,1.6370001-1.8499985,3.3699989-1.8499985
		c3.6009998,0,4.2670002,2.3699989,4.2670002,5.454999v6.2859983H20.4469948z"/>
</g>
</svg>
