<svg preserveAspectRatio="xMidYMid meet" data-bbox="19.667 19.667 160.665 160.666" viewBox="19.667 19.667 160.665 160.666" height="200" width="200" xmlns="http://www.w3.org/2000/svg" data-type="color" role="presentation" aria-hidden="true" aria-labelledby="svgcid-vdbicn-e1809s"><defs><style>#comp-kr0d2s2p1 svg [data-color="1"] {fill: #E6FAC0;}
#comp-kr0d2s2p1 svg [data-color="2"] {fill: #000000;}</style></defs><title id="svgcid-vdbicn-e1809s"></title>
    <g>
        <path d="M99.999 180.333c-44.367 0-80.332-35.967-80.332-80.333s35.965-80.333 80.332-80.333S180.332 55.633 180.332 100s-35.966 80.333-80.333 80.333z" fill="#EAFFC4" clip-rule="evenodd" fill-rule="evenodd" data-color="1"></path>
        <path d="M132.211 81.377c-11.935-11.978-28.805-15.499-41.199-8.655-2.817-1.107-5.832-.668-7.984 1.114-2.012-.967-3.35-2.5-4.228-4.05l.028-.291-.202-.024c-1.286-2.434-1.497-4.784-1.5-4.825-.04-.516-.478-.89-1.009-.866a.94.94 0 0 0-.867 1.007c.012.166.183 2.187 1.187 4.525-2.712-.028-8.639.448-13.518 4.635-4.485 3.849-6.897 9.823-7.169 17.754l-.031.872.867.096c.074.008.547.056 1.312.056 2.437 0 7.824-.494 12.591-4.371 4.263-3.468 6.925-8.768 7.964-15.74a11.092 11.092 0 0 0 3.236 2.664c-1.466 2.115-1.762 4.916-.737 7.54-2.74 5.001-3.856 10.934-3.229 17.19a.941.941 0 0 0 1.872-.188c-.605-6.036.507-11.733 3.218-16.477l.238-.417-.197-.438c-1.112-2.461-.726-5.161.983-6.878 1.71-1.713 4.398-2.098 6.845-.987l.439.2.419-.241c11.511-6.618 28.055-3.203 39.339 8.122 11.287 11.328 14.688 27.935 8.091 39.486l-.238.417.197.437c1.112 2.464.727 5.162-.984 6.878-1.707 1.712-4.394 2.102-6.844.987l-.44-.199-.418.24c-7.493 4.31-17.294 4.502-26.524.596 8.862-5.502 14.798-15.316 14.798-26.519v-.941H56.346v.941c0 17.201 13.945 31.195 31.086 31.195a30.77 30.77 0 0 0 14.277-3.515c5.019 2.335 10.246 3.512 15.261 3.512 4.944 0 9.68-1.135 13.802-3.406 3.048 1.198 6.346.606 8.505-1.561 2.163-2.169 2.75-5.474 1.554-8.535 6.82-12.437 3.315-29.362-8.62-41.34zm-62.887 5.5c-4.441 3.623-9.596 4.016-11.651 3.959.399-6.909 2.569-12.103 6.456-15.448 4.589-3.95 10.401-4.239 12.635-4.185-.839 7.059-3.34 12.329-7.44 15.674zm18.107 47.462c-15.79 0-28.693-12.642-29.19-28.372h58.38c-.496 15.73-13.399 28.372-29.19 28.372z" fill="#111111" data-color="2"></path>
        <path d="M132.994 119.834a.941.941 0 0 0 1.283-.35c5.403-9.459 2.366-23.308-7.223-32.93-6.194-6.215-14.521-9.926-22.273-9.926a.94.94 0 1 0 0 1.88c7.264 0 15.093 3.504 20.942 9.373 9 9.033 11.912 21.932 6.922 30.669a.94.94 0 0 0 .349 1.284z" fill="#111111" data-color="2"></path>
    </g>
</svg>
