<?xml version="1.0" encoding="utf-8"?>
<!-- Generator: Adobe Illustrator 26.0.2, SVG Export Plug-In . SVG Version: 6.00 Build 0)  -->
<svg version="1.1" id="Layer_1" xmlns="http://www.w3.org/2000/svg" xmlns:xlink="http://www.w3.org/1999/xlink" x="0px" y="0px"
	 viewBox="0 0 24 24" style="enable-background:new 0 0 24 24;" xml:space="preserve">
<style type="text/css">
	.st0{clip-path:url(#SVGID_00000006671781099720428030000002784079855873118358_);}
</style>
<g>
	<defs>
		<rect id="SVGID_1_" width="24" height="24"/>
	</defs>
	<clipPath id="SVGID_00000037684649659643939560000002822774058482664597_">
		<use xlink:href="#SVGID_1_"  style="overflow:visible;"/>
	</clipPath>
	<path style="clip-path:url(#SVGID_00000037684649659643939560000002822774058482664597_);" d="M23.9529934,4.5699997
		c-0.8985176,0.3956032-1.8503952,0.6567383-2.8249989,0.7749977c1.0261116-0.6167488,1.794405-1.5839539,2.1630001-2.7229977
		c-0.9510002,0.5550003-2.0050011,0.9589996-3.1270008,1.184c-0.9939919-1.0629196-2.4075451-1.6312599-3.860672-1.5522404
		c-1.453125,0.0790195-2.7967157,0.7972889-3.6695881,1.9617233c-0.8728724,1.1644363-1.185462,2.6555557-0.8537369,4.0725155
		C7.6899986,8.0949984,4.066999,6.1299973,1.6399995,3.1619987C1.1987938,3.9118137,0.9686638,4.767025,0.9739997,5.6369991
		c0,1.7099991,0.8699999,3.2129993,2.1879995,4.0959988C2.3808572,9.7081327,1.6169717,9.496933,0.9339998,9.1169968v0.0600014
		c-0.000443,1.1363897,0.3922689,2.2379389,1.1115057,3.1177578c0.7192378,0.879817,1.7207065,1.483716,2.8344936,1.70924
		c-0.7217011,0.1933813-1.477587,0.2224274-2.2119999,0.085c0.3161221,0.9780073,0.9296627,1.8329382,1.7550139,2.4454985
		s1.8213372,0.9521885,2.8489847,0.9715023c-1.7404714,1.3659477-3.8895216,2.1073036-6.1019983,2.1049976
		c-0.3899999,0-0.7789998-0.0229988-1.1699997-0.0669994c2.2557085,1.4443245,4.8785114,2.2110004,7.5569983,2.2089996
		c9.0529985,0,13.9979982-7.4959984,13.9979982-13.9849968c0-0.2099991,0-0.4200001-0.0150013-0.6299992
		c0.9659939-0.695137,1.7992287-1.5581799,2.4599991-2.5479984L23.9529934,4.5699997z"/>
</g>
</svg>
