<svg xmlns="http://www.w3.org/2000/svg" xmlns:xlink="http://www.w3.org/1999/xlink" width="17px" height="14px" viewBox="0 0 17 14" version="1.1" class="bm-icon"><g id="Page-1" stroke="none" stroke-width="1" fill="none" fill-rule="evenodd"> <g id="Twitter" fill-rule="nonzero" fill="#a05941"><path class="social-icon" d="M17.4548687,1.65694586 C16.8006163,1.94242988 16.1078287,2.12983929 15.3988778,2.21312222 C16.1440842,1.77488348 16.7038328,1.07985192 16.9731595,0.2583601 C16.2690869,0.670134249 15.5003577,0.959686283 14.699585,1.11473208 C14.0192464,0.400390959 13.075058,-0.00269839866 12.0885813,5.22486421e-05 C11.0011688,-0.0157056882 9.96710799,0.470284787 9.28529927,1.31754576 C8.60349054,2.16480673 8.34993888,3.27888931 8.59793463,4.33776248 C5.72873338,4.19977846 3.05038327,2.85954744 1.21987117,0.645821878 C0.902398209,1.18406561 0.735235572,1.797665 0.735834833,2.42256102 C0.63410345,3.56521253 1.13332685,4.67866137 2.05413572,5.36284905 C1.4100103,5.27237374 0.77528064,5.12439995 0.157551039,4.92070047 L0.157551039,4.96491533 C0.287370318,6.70320729 1.58183683,8.13095591 3.29913302,8.4299639 C3.03860692,8.51192082 2.76707025,8.55351459 2.49395719,8.55330008 C2.29058375,8.55334936 2.08777492,8.53189843 1.88891178,8.48930489 C2.38202897,9.93820048 3.73286042,10.920581 5.26320353,10.9432295 C3.99712372,11.9273406 2.43830042,12.4597816 0.834736488,12.455843 C0.552405836,12.4562334 0.270310648,12.4395253 -0.01,12.4058104 C1.6352361,13.4494679 3.5440871,14.0020619 5.49242266,13.9987089 C8.1817256,14.0360903 10.7737157,12.9935521 12.6881657,11.1044706 C14.6026157,9.21538915 15.6796354,6.6375359 15.6781296,3.94797361 C15.6781296,3.79438515 15.6781296,3.64196025 15.6688212,3.4906989 C16.3682204,2.99021887 16.9729941,2.3692916 17.4548687,1.65694586 Z" id="T_copy_3"></path></g></g></svg>