<svg data-bbox="22.06 14.95 155.895 170.226" viewBox="22.06 14.95 155.895 170.226" height="200" width="200" xmlns="http://www.w3.org/2000/svg" data-type="color"><path d="M110.3 18c9.2-2.3 19.4-2.2 27.8 2.4 6.1 3.4 10.8 9 14.4 15.1 3.1 5.3 5.5 11.2 9.9 15.5 3.2 3.2 7.4 5.3 10.8 8.2.6.5 1.1 1.1 1.7 1.6 1.8 1.6 3.6 5.1 2.9 6.8-2.5 4.9-9 5.6-11.3 10.7l-.9 2.1c-.3.7-.6 1.4-.9 2-3.1 6.4-10.4 11.7-17.2 9.1-5.5-2.5-11.2-4.7-17.1-3.4-1 .1-2 .4-3.1.6-4.1 1.1-8.2 3.4-12.1 7.1-1.9 2-7.4.9-11 .9-1.7 0-3.3-.1-5-.2-14.9-.8-29.6-3.6-43.7-8.3-2.5-.8-5-1.7-7.6-1.5-2.6.2-4.1 1.7-4.5 4.3-.2 1.2-1.1 2.7-.9 3.9.4 3 0 6.1-1 9-.3 1-.7 1.9-1.2 2.8-6.6 9.1-8.3 20-8.6 31.1-.1 2.1-1.1 5.7-2.1 5.3-10.9-7.2-1.5-24.1-3.8-35.4.1-1.3.1-2.5.1-3.8.3-10.1.1-20.2-.5-30.2-.2-2.9-.4-5.8.3-8.6 1.7-6.8 8.2-11.1 14.4-14.2 6.2-3.2 13-6.2 16.6-12.2.9-1.6 1.6-3.3 2.9-4.7 1.6-1.8 4-2.7 6.3-3.4 7.3-2.2 14.8-2 22-3.7 7.8-2 14.6-6.9 22.4-8.9z" fill="#8aa0ff" data-color="1"/><path d="M32.2 78.1c.1.4.2.8.4 1.2l.2-.2.3-.6c.2-.3.3-.6.2-.9-.1-.3-.5-.5-.8-.3-.1 0-.2.1-.2.1-.1.1-.2.2-.2.3 0 .2.1.3.1.4zM34.2 80c0 .1.1.2.3.3.1 0 .3 0 .4-.1.2-.1.4-.3.6-.4.3-.2.6-.4.6-.6.1-.3-.2-.6-.6-.7h-.3c-.3.1-.6.2-.9.4-.1.3-.2.7-.1 1.1zM37.6 81.4c.1.1.2.1.4 0 .1-.1.2-.2.2-.3.1-.2.1-.5.2-.7.1-.3.2-.7.1-.9s-.5-.4-.9-.1l-.2.2c-.1.3-.3.6-.4.8.1.4.3.8.6 1zM40 82.4c.1.1.2.2.4.1.1 0 .2-.2.3-.3l.3-.6c.2-.3.3-.6.2-.9-.1-.3-.5-.5-.8-.3-.1 0-.2.1-.2.1-.2.2-.4.5-.6.7 0 .5.1.9.4 1.2zM42.1 83.1c0 .1.1.2.3.3.1 0 .3 0 .4-.1.2-.1.4-.3.6-.4.3-.2.6-.4.6-.6.1-.3-.2-.6-.6-.7h-.3c-.3.1-.6.2-.9.4-.1.3-.2.7-.1 1.1zM45.5 84.5c.1.1.2.1.4 0 .1-.1.2-.2.2-.3.1-.2.1-.5.2-.7.1-.3.2-.7.1-.9s-.5-.4-.9-.1l-.2.2c-.1.3-.3.6-.4.8.1.4.3.8.6 1zM47.7 85.2c.3-.1.6-.1.9-.2.1-.1.1-.3.2-.4.2-.3.3-.6.2-.9-.1-.3-.5-.5-.8-.3-.1 0-.2.1-.2.1-.2.2-.4.5-.6.7 0 .5.1.8.3 1zM50.1 85.3c.5-.2.9-.4 1.4-.6-.1 0-.1-.1-.2-.1H51c-.3.1-.6.2-.9.4v.3c-.1 0 0 0 0 0zM33.5 82.9c.1.1.2.1.4 0 .1-.1.2-.2.2-.3.1-.2.1-.5.2-.7.1-.3.2-.7.1-.9s-.5-.4-.9-.1l-.2.2c-.1.3-.3.6-.4.8 0 .5.3.8.6 1zM35.9 83.9c.1.1.2.2.4.1.1 0 .2-.2.3-.3l.3-.6c.2-.3.3-.6.2-.9-.1-.3-.5-.5-.8-.3-.1 0-.2.1-.2.1-.2.2-.4.5-.6.7-.1.5.1.9.4 1.2zM38 84.6c0 .1.1.2.3.3.1 0 .3 0 .4-.1.2-.1.4-.3.6-.4.3-.2.6-.4.6-.6.1-.3-.2-.6-.6-.7H39c-.3.1-.6.2-.9.4-.2.3-.2.7-.1 1.1zM41.4 86c.1.1.2.1.4 0 .1-.1.2-.2.2-.3.1-.2.1-.5.2-.7.1-.3.2-.7.1-.9-.1-.3-.5-.4-.9-.1l-.2.2c-.1.3-.3.6-.4.8 0 .5.2.8.6 1zM43.7 87c.1.1.2.2.4.1.1 0 .2-.2.3-.3l.3-.6c.2-.3.3-.6.2-.9-.1-.3-.5-.5-.8-.3-.1 0-.2.1-.2.1-.2.2-.4.5-.6.7 0 .5.1.9.4 1.2zM33.8 86.2c0 .1.1.2.3.3.1 0 .3 0 .4-.1.2-.1.4-.3.6-.4.3-.2.6-.4.6-.6.1-.3-.2-.6-.6-.7h-.3c-.3.1-.6.2-.9.4-.1.3-.2.7-.1 1.1zM37.2 87.6c.1.1.2.1.4 0 .1-.1.2-.2.2-.3.1-.2.1-.5.2-.7.1-.3.2-.7.1-.9s-.5-.4-.9-.1l-.2.2c-.1.3-.3.6-.4.8.1.4.3.8.6 1zM39.6 88.6c.1.1.2.2.4.1.1 0 .2-.2.3-.3l.3-.6c.2-.3.3-.6.2-.9-.1-.3-.5-.5-.8-.3-.1 0-.2.1-.2.1-.2.2-.4.5-.6.7-.1.5.1.9.4 1.2zM41.9 89.5c.1 0 .3 0 .4-.1.2-.1.4-.3.6-.4.1 0 .1-.1.2-.1.1-.3.2-.5.4-.8-.1-.2-.3-.4-.5-.4h-.3c-.3.1-.6.2-.9.4-.2.3-.3.7-.2 1.1.1.2.2.3.3.3zM35.4 90.1c.1.1.2.2.4.1.1 0 .2-.2.3-.3l.3-.6c.2-.3.3-.6.2-.9-.1-.3-.5-.5-.8-.3-.1 0-.2.1-.2.1-.2.2-.4.5-.6.7 0 .5.1.9.4 1.2zM37.6 90.8c0 .1.1.2.3.3.1 0 .3 0 .4-.1.2-.1.4-.3.6-.4.3-.2.6-.4.6-.6s-.2-.6-.6-.7h-.3c-.3.1-.6.2-.9.4-.2.3-.3.7-.1 1.1zM40.9 92.2c.1.1.2.1.4 0 .1-.1.2-.2.2-.3.1-.2.1-.5.2-.7.1-.3.2-.7.1-.9s-.5-.4-.9-.1l-.2.2c-.1.3-.3.6-.4.8.1.5.3.8.6 1zM34.3 92.4c.1-.1.2-.1.3-.2.3-.2.6-.4.6-.6.1-.3-.2-.6-.6-.7h-.4c.1.5.1 1 .1 1.5zM36.8 93.8c.1.1.2.1.4 0 .1-.1.2-.2.2-.3.1-.2.1-.5.2-.7.1-.3.2-.7.1-.9s-.5-.4-.9-.1l-.2.2c-.1.3-.3.6-.4.8 0 .4.3.8.6 1zM39.2 94.7c.1.1.2.2.4.1.1 0 .2-.2.3-.3l.3-.6c.2-.3.3-.6.2-.9-.1-.3-.5-.5-.8-.3-.1 0-.2.1-.2.1-.2.2-.4.5-.6.7-.1.6.1 1 .4 1.2zM41.9 94.7v-.6c-.2.1-.3.1-.5.2-.2.3-.3.7-.2 1.1 0 .1.1.2.3.3h.1c.1-.3.2-.6.3-1zM35 96.3c.1.1.2.2.4.1.1 0 .2-.2.3-.3l.3-.6c.2-.3.3-.6.2-.9-.1-.3-.5-.5-.8-.3-.1 0-.2.1-.2.1-.2.2-.4.5-.6.7 0 .5.1.9.4 1.2zM37.1 97c0 .1.1.2.3.3.1 0 .3 0 .4-.1.2-.1.4-.3.6-.4.3-.2.6-.4.6-.6.1-.3-.2-.6-.6-.7h-.3c-.3.1-.6.2-.9.4-.1.3-.2.7-.1 1.1zM40.5 98.4c.1.1.2.1.4 0 .1-.1.2-.2.2-.3.1-.2.1-.5.2-.7.1-.3.2-.7.1-.9s-.5-.4-.9-.1l-.2.2c-.1.3-.3.6-.4.8.1.4.3.8.6 1zM33 98.6c0 .1.1.2.3.3.1 0 .3 0 .4-.1.2-.1.4-.3.6-.4.3-.2.6-.4.6-.6s-.2-.6-.6-.7H34c-.3.1-.6.2-.9.4-.2.3-.2.7-.1 1.1zM36.4 100c.1.1.2.1.4 0 .1-.1.2-.2.2-.3.1-.2.1-.5.2-.7.1-.3.2-.7.1-.9-.1-.3-.5-.4-.9-.1l-.2.2c-.1.3-.3.6-.4.8 0 .4.2.8.6 1zM38.7 100.9c.1.1.2.2.4.1.1 0 .2-.2.3-.3l.3-.6c.2-.3.3-.6.2-.9-.1-.3-.5-.5-.8-.3-.1 0-.2.1-.2.1-.2.2-.4.5-.6.7 0 .6.1 1 .4 1.2zM32.6 101.6c.1-.1.2-.2.2-.3.1-.2.1-.5.2-.7.1-.3.2-.7.1-.9s-.5-.4-.9-.1c-.1.6-.1 1.2-.2 1.7.1.1.2.2.3.2 0 .1.2.1.3.1zM34.6 102.5c.1.1.2.2.4.1.1 0 .2-.2.3-.3l.3-.6c.2-.3.3-.6.2-.9-.1-.3-.5-.5-.8-.3-.1 0-.2.1-.2.1-.2.2-.4.5-.6.7 0 .5.1.9.4 1.2zM36.7 103.2c0 .1.1.2.3.3.1 0 .3 0 .4-.1.2-.1.4-.3.6-.4.3-.2.6-.4.6-.6.1-.3-.2-.6-.6-.7h-.3c-.3.1-.6.2-.9.4-.1.3-.2.7-.1 1.1zM32.6 104.8c0 .1.1.2.3.3.1 0 .3 0 .4-.1.2-.1.4-.3.6-.4.3-.2.6-.4.6-.6.1-.3-.2-.6-.6-.7h-.3c-.3.1-.6.2-.9.4-.2.3-.3.7-.1 1.1zM35.9 106.2l.9-1.2c0-.2.1-.4 0-.6-.1-.3-.5-.4-.9-.1l-.2.2c-.1.3-.3.6-.4.8.1.3.3.6.6.9zM31.8 107.7c.1.1.2.1.4 0 .1-.1.2-.2.2-.3.1-.2.1-.5.2-.7.1-.3.2-.7.1-.9s-.5-.4-.9-.1l-.2.2c-.1.3-.3.6-.4.8.1.4.3.8.6 1zM33.6 108.2c.3-.7.8-1 1.4-1v-.4c-.1-.3-.5-.5-.8-.3-.1 0-.2.1-.2.1-.2.2-.4.5-.6.7 0 .4 0 .7.2.9zM30.3 109.9l.3-.6c.2-.3.3-.6.2-.9 0-.1-.1-.2-.2-.3-.1.6-.3 1.3-.5 1.9.1 0 .2 0 .2-.1zM32 111.1c.1 0 .3 0 .4-.1.1 0 .1-.1.2-.1 0-.2 0-.4.1-.6 0-.1.1-.1.1-.2 0-.3.1-.5.2-.8h-.2c-.3.1-.6.2-.9.4-.2.3-.3.7-.2 1.1l.3.3zM31 113.8c.1.1.2.1.4 0 .1-.1.2-.2.2-.3.1-.2.1-.5.2-.7.1-.3.2-.7.1-.9-.1-.3-.5-.4-.9-.1l-.2.2c-.1.3-.3.6-.4.8.1.4.3.7.6 1zM29.6 114.3c-.1 0-.2.1-.2.1-.1.2-.3.4-.4.6 0 .2-.1.3-.1.5 0 .3.2.6.4.8.1.1.2.2.4.1.1 0 .2-.2.3-.3l.3-.6c.2-.3.3-.6.2-.9-.1-.3-.5-.5-.9-.3zM32.6 116.1c0-.1-.1-.2-.1-.4v-.3h-.1c-.3.1-.6.2-.9.4-.2.3-.3.7-.2 1.1 0 .1.1.2.3.3.1 0 .3 0 .4-.1.2-.1.4-.2.6-.4v-.6zM28.5 117l-.3 1.5c.1 0 .1-.1.2-.1.3-.2.6-.4.6-.6.1-.4-.1-.7-.5-.8zM30.6 120c.1.1.2.1.4 0 .1-.1.2-.2.2-.3.1-.2.1-.5.2-.7.1-.3.2-.7.1-.9-.1-.3-.5-.4-.9-.1l-.2.2c-.1.3-.3.6-.4.8 0 .4.2.7.6 1zM28.8 122.5c.1.1.2.2.4.1.1 0 .2-.2.3-.3l.3-.6c.2-.3.3-.6.2-.9-.1-.3-.5-.5-.8-.3-.1 0-.2.1-.2.1-.2.2-.4.5-.6.7 0 .5.1.9.4 1.2zM32 121.7c-.3.1-.6.2-.9.4-.2.3-.3.7-.2 1.1 0 .1.1.2.3.3.1 0 .3 0 .4-.1.1-.1.2-.1.3-.2 0-.5.1-1 .1-1.5zM30.2 126.2c.1.1.2.1.4 0 .1-.1.2-.2.2-.3.1-.2.1-.5.2-.7.1-.3.2-.7.1-.9-.1-.3-.5-.4-.9-.1l-.2.2c-.1.3-.3.6-.4.8 0 .4.2.7.6 1zM68.5 55.5c0 .1.1.2.3.3.1 0 .3 0 .4-.1.2-.1.4-.3.6-.4.3-.2.6-.4.6-.6 0-.1 0-.3-.1-.4-.6.1-1.2.2-1.7.3-.1.3-.2.6-.1.9zM71.9 56.9c.1.1.2.1.4 0 .1-.1.2-.2.2-.3.1-.2.1-.5.2-.7.1-.3.2-.7.1-.9-.1-.3-.5-.4-.9-.1l-.2.2c-.1.3-.3.6-.4.8.1.4.3.8.6 1zM64.4 57.1c0 .1.1.2.3.3.1 0 .3 0 .4-.1.2-.1.4-.3.6-.4.3-.2.6-.4.6-.6.1-.3-.2-.6-.6-.7h-.3c-.3.1-.6.2-.9.4-.2.3-.2.7-.1 1.1zM67.8 58.5c.1.1.2.1.4 0 .1-.1.2-.2.2-.3.1-.2.1-.5.2-.7.1-.3.2-.7.1-.9-.1-.3-.5-.4-.9-.1l-.2.2c-.1.3-.3.6-.4.8 0 .4.2.7.6 1zM58.1 57.9c.1.1.2.2.4.1.1 0 .2-.2.3-.3l.3-.6c0-.1.1-.1.1-.2-.5.1-1 .1-1.5.1 0 .3.2.7.4.9zM60.2 58.6c0 .1.1.2.3.3.1 0 .3 0 .4-.1.2-.1.4-.3.6-.4.3-.2.6-.4.6-.6s-.2-.6-.6-.7h-.3c-.3.1-.6.2-.9.4-.1.3-.2.7-.1 1.1zM63.6 60c.1.1.2.1.4 0 .1-.1.2-.2.2-.3.1-.2.1-.5.2-.7.1-.3.2-.7.1-.9-.1-.3-.5-.4-.9-.1l-.2.2c-.1.3-.3.6-.4.8.1.4.3.8.6 1zM36.5 53.6c.3.4.4 1.1.8.9.4-.2.4-.9.6-1.5-.4.2-.9.4-1.4.5.1 0 0 .1 0 .1zM39.2 55.1c1.2.1.7-1.1 1.3-1.6-.8-.6-1 0-1.6.7 0 .3.1.7.3.9zM41.1 55.4c1 .7 1-1.1 1.7-1.2-.6-.9-1 0-1.5.1-.2.4-.3.8-.2 1.1zM44.1 56.1c1.2-.4.2-1.4.7-2-.9-.3-.8.4-1.2 1.2.1.4.2.7.5.8zM46.3 56.7c1.6.2.4-1.2 1.3-1.7-.8-.6-1 0-1.6.7-.1.4 0 .7.3 1zM48.3 57.1c1.1.3 1.5-.7 1.9-.9-.5-.6-1.1-.8-1.7-.3-.3.5-.3.9-.2 1.2zM51.6 58.5c.1.1.2.1.4 0 .1-.1.2-.2.2-.3.1-.2.1-.5.2-.7.1-.3.2-.7.1-.9-.1-.3-.5-.4-.9-.1l-.2.2c-.1.3-.3.6-.4.8.1.4.3.8.6 1zM54 59.4c.1.1.2.2.4.1.1 0 .2-.2.3-.3l.3-.6c.2-.3.3-.6.2-.9-.1-.3-.5-.5-.8-.3-.1 0-.2.1-.2.1-.2.2-.4.5-.6.7-.1.6.1 1 .4 1.2zM56.1 60.2c0 .1.1.2.3.3.1 0 .3 0 .4-.1.2-.1.4-.3.6-.4.3-.2.6-.4.6-.6.1-.3-.2-.6-.6-.7h-.3c-.3.1-.6.2-.9.4-.2.3-.2.7-.1 1.1zM59.5 61.6c.1.1.2.1.4 0 .1-.1.2-.2.2-.3.1-.2.1-.5.2-.7.1-.3.2-.7.1-.9-.1-.3-.5-.4-.9-.1l-.2.2c-.1.3-.3.6-.4.8 0 .4.2.8.6 1zM35.2 56.8c1.3-.2 1.5-.8 1.2-1.6-.3-.1-.7-.9-1.5.6-.1.4 0 .7.3 1zM37.2 57.3c0-.1.2.3.2.3.7-.1 1.4-.9 1.6-1.2 0-.7-1.1-.7-1.5-.1-.3.3-.4.7-.3 1zM40.3 58.1c.8-.3 1.2-1.9.1-1.9-.1.3-.4.9-.6 1.1 0 .4.1.7.5.8zM42.4 58.6c1.2-.4 1.6-1.3 1.1-1.8-.6-.2-1.1.3-1.4.9-.1.4 0 .7.3.9zM44.3 59c1.1.4 2.4-1.2 1.2-1.7-.3-.1-.6.5-.9.6-.3.4-.4.8-.3 1.1zM47.5 60.1c1.4-.3.4-1.4.9-1.9-.9-.3-1.2.3-1.5 1 .1.3.2.7.6.9zM49.8 61c.1.1.2.2.4.1.1 0 .2-.2.3-.3l.3-.6c.2-.3.3-.6.2-.9-.1-.3-.5-.5-.8-.3-.2.5-.6.6-.8.9 0 .4.1.8.4 1.1zM51.9 61.7c0 .1.1.2.3.3.1 0 .3 0 .4-.1.2-.1.4-.3.6-.4.3-.2.6-.4.6-.6.1-.3-.2-.6-.6-.7h-.3c-.3.1-.6.2-.9.4-.1.3-.2.7-.1 1.1zM55.3 63.1c.1.1.2.1.4 0 .1-.1.2-.2.2-.3.1-.2.1-.5.2-.7.1-.3.2-.7.1-.9-.1-.3-.5-.4-.9-.1l-.2.2c-.1.3-.3.6-.4.8.1.4.3.8.6 1zM30.8 57.9c1.2.4.6-.8 1.2-1.3-.5.2-.7.7-1.1.8.1.2 0 .3-.1.5zM32.9 58.6c.8.7 1.4-.4 1.8-.6-.3-.8-1.2-.5-1.5-.3-.3.2-.4.6-.3.9zM36.2 59.8c.7-.3 1.3-.8 1-1.6-.4.9-.9-1-1.5.8 0 .3.1.6.5.8zM38.4 60.4c1.1.3.6-.9 1.2-1.4-.6.5-.5-1.2-1.5.5-.1.4 0 .7.3.9zM40.3 60.8c.6-.3 1.8.1 1.9-.9 0-.7-1.1-.7-1.7-.1-.2.4-.3.7-.2 1zM43.4 61.8c1.2-.4.3-1.4.8-1.9-.9-.3-1 .7-1.4 1 .1.4.3.7.6.9zM45.7 62.6c1.6.2.4-1.3 1.3-1.7-1.1-.7-1.2.3-1.7.7 0 .3.1.7.4 1zM47.8 63.3c0 .1.1.2.3.3.1 0 .3 0 .4-.1.2-.1.4-.3.6-.4.3-.2.6-.4.6-.6s-.2-.6-.6-.7h-.3c-.3.1-.6.2-.9.4-.1.3-.2.7-.1 1.1zM51.2 64.7c.1.1.2.1.4 0 .1-.1.2-.2.2-.3.1-.2.1-.5.2-.7.1-.3.2-.7.1-.9-.1-.3-.5-.4-.9-.1l-.2.2c-.1.3-.3.6-.4.8 0 .4.2.8.6 1zM30.5 59l-.2-.4c-.1.3-.6.5-.6.9.3-.2.6-.3.8-.5zM31.8 61c.6.2.4-.9 1-.6.3-.6-.2-1.1-1-1.1-.1.3-.3.6-.6.9.1.3.3.6.6.8zM34.1 61.8c1.5.2.4-1.2 1.3-1.5-.7.1-1.4-.2-1.6.7 0 .3.1.6.3.8zM36.2 62.4c1.2.6 1.4-.7 1.9-.8-.3-.8-1.1-.7-1.6-.1-.3.2-.4.6-.3.9zM39.3 63.4c1.2-.4.5-1.3 1.1-1.8-.9-.3-1.2.3-1.6.9.1.5.2.8.5.9zM41.6 64.2c1.4.5.5-1.6 1.2-1.7-.8-.6-1.2.3-1.6.7 0 .4.1.7.4 1zM43.7 64.8c.9.5 1.6-.4 1.8-1-.1-.8-1.1-.8-1.6-.1-.3.3-.4.7-.2 1.1zM47 66.2c.1.1.2.1.4 0 .1-.1.2-.2.2-.3.1-.2.1-.5.2-.7.1-.3.2-.7.1-.9s-.5-.3-.9-.1l-.2.2c-.1.3-.3.6-.4.8.1.4.3.8.6 1zM29.8 63c1.3.4.8-.8 1.4-1.3-.8-.7-1.3-.5-1.7.3-.1.4 0 .7.3 1zM31.9 63.7c1.1.4 1.8-.3 1.9-.6 0-.7-1.1-.8-1.6-.3-.3.2-.4.5-.3.9zM35.2 64.9c1.6.3.5-1.2 1-1.7-.9-.3-1.4-.2-1.6.8.1.4.2.7.6.9zM37.5 65.7c1.3-.2 1.5-.8 1.2-1.6-.5-.5-1 0-1.5.6-.1.4 0 .8.3 1zM39.5 66.4c1.1.6 1.3-.7 1.7-.9-.5-.5-.7-1-1.5-.2-.2.3-.3.7-.2 1.1zM42.9 67.8c.1.1.2.1.4 0 .1-.1.2-.2.2-.3.1-.2.1-.5.2-.7.1-.3.2-.7.1-.9-1.3-.7-.9.9-1.5.9 0 .4.3.8.6 1zM29.5 64.2c-.2-.1-.4-.5-.7-.7-.1.3-.1 1 0 1.2.3-.1.6-.3.7-.5zM30.9 66.3c.8-.2.9-1.3 1-1.6-.7-1-1.2.2-1.6.6.1.4.3.8.6 1zM33.3 67.2c.6-.3 1.5-.7 1.1-1.5-.5-.5-1.1-.1-1.5.5-.1.4.1.7.4 1zM35.4 67.9c-.1-.1.1.3.1.3.7-.1 1.1-1 1.9-1.1-.5-.5-1.1-.8-1.8-.4-.3.4-.3.8-.2 1.2zM38.8 69.3c.1.1.2.1.4 0 .1-.1.2-.2.2-.3.1-.2.1-.5.2-.7.1-.3.2-.7.1-.9-.6-.7-1.1.5-1.5.9 0 .5.2.8.6 1zM30.1 68c.3-.3.4-.6.2-1s-.6-.2-1.1-.1c-.2.6.1.8.2 1.3 0 .2.1.4.1.6l.2-.2c.1-.2.3-.4.4-.6zM31.2 69.5c0 .1.1.2.3.3.1 0 .3 0 .4-.1.2-.1.4-.3.6-.4.3-.2.6-.4.6-.6-.1-.3-.4-.4-.6-.8-.2.6-.6.5-1.1.5-.2.3-.3.7-.2 1.1zM34.6 70.9c.1.1.2.1.4 0 .1-.1.2-.2.2-.3.1-.2.1-.5.2-.7.1-.3.2-.7.1-.9-.1-.3-.5-.4-.9-.1l-.2.2c-.1.3-.3.6-.4.8.1.4.3.8.6 1zM30.8 72.5c.1-.1.2-.2.2-.3.1-.2.1-.5.2-.7.1-.3.2-.7.1-.9-.1-.3-.5-.4-.9-.1l-.2.2c-.1.1-.1.3-.2.4.1.5.2.9.3 1.4l.1.1c.2-.1.3 0 .4-.1zM73.9 57.7c.1.1.2.2.4.1.1 0 .2-.2.3-.3l.3-.6c.2-.3.3-.6.2-.9-.1-.3-.5-.5-.8-.3-.1 0-.2.1-.2.1-.2.2-.4.5-.6.7 0 .6.1.9.4 1.2zM76 58.5c0 .1.1.2.3.3.1 0 .3 0 .4-.1.2-.1.4-.3.6-.4.3-.2.6-.4.6-.6.1-.3-.2-.6-.6-.7H77c-.3.1-.6.2-.9.4-.1.2-.2.7-.1 1.1zM79.4 57.9l-.2.2c-.1.3-.3.6-.4.8 0 .4.3.8.6 1 .1.1.2.1.4 0 .1-.1.2-.2.2-.3.1-.2.1-.5.2-.7 0-.1 0-.2.1-.2-.2-.3-.5-.6-.7-.9-.1 0-.2 0-.2.1zM69.8 59.3c.1.1.2.2.4.1.1 0 .2-.2.3-.3l.3-.6c.2-.3.3-.6.2-.9-.1-.3-.5-.5-.8-.3-.1 0-.2.1-.2.1-.2.2-.4.5-.6.7-.1.5.1.9.4 1.2zM71.9 60c0 .1.1.2.3.3.1 0 .3 0 .4-.1.2-.1.4-.3.6-.4.3-.2.6-.4.6-.6s-.2-.6-.6-.7h-.3c-.3.1-.6.2-.9.4-.2.3-.2.7-.1 1.1zM75.3 61.4c.1.1.2.1.4 0 .1-.1.2-.2.2-.3.1-.2.1-.5.2-.7.1-.3.2-.7.1-.9-.1-.3-.5-.4-.9-.1l-.2.2c-.1.3-.3.6-.4.8 0 .4.2.8.6 1zM77.6 62.4c.1.1.2.2.4.1.1 0 .2-.2.3-.3l.3-.6c.2-.3.3-.6.2-.9-.1-.3-.5-.5-.8-.3-.1 0-.2.1-.2.1-.2.2-.4.5-.6.7 0 .5.1.9.4 1.2zM79.7 63.1c0 .1.1.2.3.3.1 0 .3 0 .4-.1.2-.1.4-.3.6-.4.3-.2.6-.4.6-.6.1-.3-.2-.6-.6-.7h-.3c-.3.1-.6.2-.9.4-.1.3-.2.7-.1 1.1zM82.9 62.7c-.1.3-.3.6-.4.8 0 .4.3.8.6 1 .1.1.2.1.4 0 .1-.1.2-.2.2-.3.1-.2.1-.5.2-.7 0-.1 0-.2.1-.2-.3-.3-.5-.6-.8-.9h-.1c-.1.2-.1.2-.2.3zM85.5 65.5c.1.1.2.2.4.1.1 0 .2-.2.3-.3 0-.1.1-.1.1-.2-.2-.1-.3-.1-.4-.2-.3-.2-.5-.4-.8-.6 0 .5.1.9.4 1.2zM65.6 60.8c.1.1.2.2.4.1.1 0 .2-.2.3-.3l.3-.6c.2-.3.3-.6.2-.9-.1-.3-.5-.5-.8-.3-.1 0-.2.1-.2.1-.2.2-.4.5-.6.7 0 .6.1 1 .4 1.2zM67.7 61.6c0 .1.1.2.3.3.1 0 .3 0 .4-.1.2-.1.4-.3.6-.4.3-.2.6-.4.6-.6.1-.3-.2-.6-.6-.7h-.3c-.3.1-.6.2-.9.4-.1.2-.2.7-.1 1.1zM71.1 63c.1.1.2.1.4 0 .1-.1.2-.2.2-.3.1-.2.1-.5.2-.7.1-.3.2-.7.1-.9-.1-.3-.5-.4-.9-.1-.1 0-.1.1-.2.1-.1.3-.3.6-.4.8.1.5.3.8.6 1.1zM73.5 63.9c.1.1.2.2.4.1.1 0 .2-.2.3-.3l.3-.6c.2-.3.3-.6.2-.9-.1-.3-.5-.5-.8-.3-.1 0-.2.1-.2.1-.2.2-.4.5-.6.7-.1.6.1.9.4 1.2zM75.6 64.6c0 .1.1.2.3.3.1 0 .3 0 .4-.1.2-.1.4-.3.6-.4.3-.2.6-.4.6-.6.1-.3-.2-.6-.6-.7h-.3c-.3.1-.6.2-.9.4-.2.3-.2.7-.1 1.1zM79 66.1c.1.1.2.1.4 0 .1-.1.2-.2.2-.3.1-.2.1-.5.2-.7.1-.3.2-.7.1-.9-.1-.3-.5-.4-.9-.1l-.2.2c-.1.3-.3.6-.4.8 0 .4.2.7.6 1zM81.3 67c.1.1.2.2.4.1.1 0 .2-.2.3-.3l.3-.6c.2-.3.3-.6.2-.9-.1-.3-.5-.5-.8-.3-.1 0-.2.1-.2.1-.2.2-.4.5-.6.7 0 .5.2.9.4 1.2zM83.5 67.7c0 .1.1.2.3.3.1 0 .3 0 .4-.1.2-.1.4-.3.6-.4.3-.2.6-.4.6-.6.1-.3-.2-.6-.6-.7h-.3c-.3.1-.6.2-.9.4-.2.3-.3.7-.1 1.1zM86.9 69.2c.1.1.2.1.4 0 .1-.1.2-.2.2-.3.1-.2.1-.5.2-.7.1-.3.2-.7.1-.9-.1-.3-.5-.4-.9-.1l-.2.2c-.1.3-.3.6-.4.8 0 .4.2.7.6 1zM89.9 68.3c-.1 0-.2-.1-.4-.2-.1 0-.1.1-.2.1-.2.2-.4.5-.6.7 0 .4.1.8.4 1.1.1.1.2.2.4.1.1 0 .2-.2.3-.3l.3-.6c.1-.3.3-.5.2-.8 0 .1-.2 0-.4-.1zM93.1 69.7c-.3-.1-.6-.2-.8-.3-.3.1-.5.2-.8.3-.2.3-.3.7-.2 1.1 0 .1.1.2.3.3.1 0 .3 0 .4-.1.2-.1.4-.3.6-.4.3-.2.6-.4.6-.6 0-.1 0-.2-.1-.3zM95.5 71.3c.1-.3.2-.5.1-.8h-.1c-.3-.1-.5-.2-.8-.3l-.2.2c-.1.3-.3.6-.4.8 0 .4.3.8.6 1 .1.1.2.1.4 0 .1-.1.2-.2.2-.3.1-.2.1-.4.2-.6zM97.1 73.2c.1.1.2.2.4.1.1 0 .2-.2.3-.3l.3-.6c.2-.3.3-.6.2-.9-.1-.3-.5-.5-.8-.3-.1 0-.2.1-.2.1-.2.2-.4.5-.6.7 0 .5.1.9.4 1.2zM99.2 73.9c0 .1.1.2.3.3.1 0 .3 0 .4-.1.2-.1.4-.3.6-.4.1-.1.2-.1.2-.2-.2-.3-.5-.7-.7-1-.2.1-.4.2-.5.2-.4.4-.4.8-.3 1.2zM61.5 62.4c.1.1.2.2.4.1.1 0 .2-.2.3-.3l.3-.6c.2-.3.3-.6.2-.9-.1-.3-.5-.5-.8-.3-.1 0-.2.1-.2.1-.2.2-.4.5-.6.7-.1.5.1.9.4 1.2zM63.6 63.1c0 .1.1.2.3.3.1 0 .3 0 .4-.1.2-.1.4-.3.6-.4.3-.2.6-.4.6-.6.1-.3-.2-.6-.6-.7h-.3c-.3.1-.6.2-.9.4-.2.3-.2.7-.1 1.1zM67 64.5c.1.1.2.1.4 0 .1-.1.2-.2.2-.3.1-.2.1-.5.2-.7.1-.3.2-.7.1-.9-.1-.3-.5-.4-.9-.1l-.2.2c-.1.3-.3.6-.4.8 0 .4.2.8.6 1zM69.3 65.5c.1.1.2.2.4.1.1 0 .2-.2.3-.3l.3-.6c.2-.3.3-.6.2-.9-.1-.3-.5-.5-.8-.3-.1 0-.2.1-.2.1-.2.2-.4.5-.6.7 0 .5.1.9.4 1.2zM71.4 66.2c0 .1.1.2.3.3.1 0 .3 0 .4-.1.2-.1.4-.3.6-.4.3-.2.6-.4.6-.6.1-.3-.2-.6-.6-.7h-.3c-.3.1-.6.2-.9.4-.1.3-.2.7-.1 1.1zM74.8 67.6c.1.1.2.1.4 0 .1-.1.2-.2.2-.3.1-.2.1-.5.2-.7.1-.3.2-.7.1-.9-.1-.3-.5-.4-.9-.1l-.2.2c-.1.3-.3.6-.4.8.1.4.3.8.6 1zM77.2 68.6c.1.1.2.2.4.1.1 0 .2-.2.3-.3l.3-.6c.2-.3.3-.6.2-.9-.1-.3-.5-.5-.8-.3-.1 0-.2.1-.2.1-.2.2-.4.5-.6.7 0 .5.1.9.4 1.2zM79.3 69.3c0 .1.1.2.3.3.1 0 .3 0 .4-.1.2-.1.4-.3.6-.4.3-.2.6-.4.6-.6.1-.3-.2-.6-.6-.7h-.3c-.3.1-.6.2-.9.4-.1.3-.2.7-.1 1.1zM82.7 70.7c.1.1.2.1.4 0 .1-.1.2-.2.2-.3.1-.2.1-.5.2-.7.1-.3.2-.7.1-.9-.1-.3-.5-.4-.9-.1l-.2.2c-.1.3-.3.6-.4.8.1.4.3.8.6 1zM85.1 71.7c.1.1.2.2.4.1.1 0 .2-.2.3-.3l.3-.6c.2-.3.3-.6.2-.9-.1-.3-.5-.5-.8-.3-.1 0-.2.1-.2.1-.2.2-.4.5-.6.7-.1.5.1.9.4 1.2zM87.2 72.4c0 .1.1.2.3.3.1 0 .3 0 .4-.1.2-.1.4-.3.6-.4.3-.2.6-.4.6-.6.1-.3-.2-.6-.6-.7h-.3c-.3.1-.6.2-.9.4-.2.3-.2.7-.1 1.1zM90.6 73.8c.1.1.2.1.4 0 .1-.1.2-.2.2-.3.1-.2.1-.5.2-.7.1-.3.2-.7.1-.9-.1-.3-.5-.4-.9-.1l-.2.2c-.1.3-.3.6-.4.8 0 .4.2.8.6 1zM92.9 74.8c.1.1.2.2.4.1.1 0 .2-.2.3-.3l.3-.6c.2-.3.3-.6.2-.9-.1-.3-.5-.5-.8-.3-.1 0-.2.1-.2.1-.2.2-.4.5-.6.7 0 .5.1.9.4 1.2zM95.1 75.5c0 .1.1.2.3.3.1 0 .3 0 .4-.1.2-.1.4-.3.6-.4.3-.2.6-.4.6-.6.1-.3-.2-.6-.6-.7h-.3c-.3.1-.6.2-.9.4-.2.3-.3.7-.1 1.1zM98.4 76.9c.1.1.2.1.4 0 .1-.1.2-.2.2-.3.1-.2.1-.5.2-.7.1-.3.2-.7.1-.9-.1-.3-.5-.4-.9-.1l-.2.2c-.1.3-.3.6-.4.8.1.4.3.8.6 1zM57.3 63.9c.1.1.2.2.4.1.1 0 .2-.2.3-.3l.3-.6c.2-.3.3-.6.2-.9-.1-.3-.5-.5-.8-.3-.1 0-.2.1-.2.1-.2.2-.4.5-.6.7 0 .6.1 1 .4 1.2zM59.4 64.7c0 .1.1.2.3.3.1 0 .3 0 .4-.1.2-.1.4-.3.6-.4.3-.2.6-.4.6-.6.1-.3-.2-.6-.6-.7h-.3c-.3.1-.6.2-.9.4-.1.3-.2.7-.1 1.1zM62.8 66.1c.1.1.2.1.4 0 .1-.1.2-.2.2-.3.1-.2.1-.5.2-.7.1-.3.2-.7.1-.9-.1-.3-.5-.4-.9-.1l-.2.2c-.1.3-.3.6-.4.8.1.4.3.7.6 1zM65.2 67c.1.1.2.2.4.1.1 0 .2-.2.3-.3l.3-.6c.2-.3.3-.6.2-.9-.1-.3-.5-.5-.8-.3-.1 0-.2.1-.2.1-.2.2-.4.5-.6.7 0 .6.1.9.4 1.2zM67.3 67.7c0 .1.1.2.3.3.1 0 .3 0 .4-.1.2-.1.4-.3.6-.4.3-.2.6-.4.6-.6.1-.3-.2-.6-.6-.7h-.3c-.3.1-.6.2-.9.4-.1.3-.2.8-.1 1.1zM70.7 69.2c.1.1.2.1.4 0 .1-.1.2-.2.2-.3.1-.2.1-.5.2-.7.1-.3.2-.7.1-.9-.1-.3-.5-.4-.9-.1l-.2.2c-.1.3-.3.6-.4.8 0 .4.2.7.6 1zM73.1 70.1c.1.1.2.2.4.1.1 0 .2-.2.3-.3l.3-.6c.2-.3.3-.6.2-.9-.1-.3-.5-.5-.8-.3-.1 0-.2.1-.2.1-.2.2-.4.5-.6.7-.1.5.1.9.4 1.2zM75.2 70.8c0 .1.1.2.3.3.1 0 .3 0 .4-.1.2-.1.4-.3.6-.4.3-.2.6-.4.6-.6.1-.3-.2-.6-.6-.7h-.3c-.3.1-.6.2-.9.4-.2.3-.2.7-.1 1.1zM78.6 72.3c.1.1.2.1.4 0 .1-.1.2-.2.2-.3.1-.2.1-.5.2-.7.1-.3.2-.7.1-.9-.1-.3-.5-.4-.9-.1l-.2.2c-.1.3-.3.6-.4.8 0 .4.2.7.6 1zM80.9 73.2c.1.1.2.2.4.1.1 0 .2-.2.3-.3l.3-.6c.2-.3.3-.6.2-.9-.1-.3-.5-.5-.8-.3-.1 0-.2.1-.2.1-.2.2-.4.5-.6.7 0 .5.1.9.4 1.2zM83 73.9c0 .1.1.2.3.3.1 0 .3 0 .4-.1.2-.1.4-.3.6-.4.3-.2.6-.4.6-.6.1-.3-.2-.6-.6-.7H84c-.3.1-.6.2-.9.4-.1.3-.2.7-.1 1.1zM86.4 75.3c.1.1.2.1.4 0 .1-.1.2-.2.2-.3.1-.2.1-.5.2-.7.1-.3.2-.7.1-.9-.1-.3-.5-.4-.9-.1l-.2.2c-.1.3-.3.6-.4.8.1.5.3.8.6 1zM88.8 76.3c.1.1.2.2.4.1.1 0 .2-.2.3-.3l.3-.6c.2-.3.3-.6.2-.9-.1-.3-.5-.5-.8-.3-.1 0-.2.1-.2.1-.2.2-.4.5-.6.7 0 .5.1.9.4 1.2zM53.2 65.5c.1.1.2.2.4.1.1 0 .2-.2.3-.3l.3-.6c.2-.3.3-.6.2-.9-.1-.3-.5-.5-.8-.3-.1 0-.2.1-.2.1-.2.2-.4.5-.6.7-.1.5.1.9.4 1.2zM55.3 66.2c0 .1.1.2.3.3.1 0 .3 0 .4-.1.2-.1.4-.3.6-.4.3-.2.6-.4.6-.6s-.2-.6-.6-.7h-.3c-.3.1-.6.2-.9.4-.2.3-.2.7-.1 1.1zM58.7 67.6c.1.1.2.1.4 0 .1-.1.2-.2.2-.3.1-.2.1-.5.2-.7.1-.3.2-.7.1-.9s-.5-.4-.9-.1l-.2.2c-.1.3-.3.6-.4.8 0 .4.2.8.6 1zM61 68.6c.1.1.2.2.4.1.1 0 .2-.2.3-.3l.3-.6c.2-.3.3-.6.2-.9-.1-.3-.5-.5-.8-.3-.1 0-.2.1-.2.1-.2.2-.4.5-.6.7 0 .5.2.9.4 1.2zM63.2 69.3c0 .1.1.2.3.3.1 0 .3 0 .4-.1.2-.1.4-.3.6-.4.3-.2.6-.4.6-.6.1-.3-.2-.6-.6-.7h-.3c-.3.1-.6.2-.9.4-.2.3-.3.7-.1 1.1zM66.6 70.7c.1.1.2.1.4 0 .1-.1.2-.2.2-.3.1-.2.1-.5.2-.7.1-.3.2-.7.1-.9-.1-.3-.5-.4-.9-.1l-.2.2c-.1.3-.3.6-.4.8 0 .4.2.8.6 1zM68.9 71.7c.1.1.2.2.4.1.1 0 .2-.2.3-.3l.3-.6c.2-.3.3-.6.2-.9-.1-.3-.5-.5-.8-.3-.1 0-.2.1-.2.1-.2.2-.4.5-.6.7 0 .5.1.9.4 1.2zM71 72.4c0 .1.1.2.3.3.1 0 .3 0 .4-.1.2-.1.4-.3.6-.4.3-.2.6-.4.6-.6.1-.3-.2-.6-.6-.7H72c-.3.1-.6.2-.9.4-.1.3-.2.7-.1 1.1zM74.4 73.8c.1.1.2.1.4 0 .1-.1.2-.2.2-.3.1-.2.1-.5.2-.7.1-.3.2-.7.1-.9-.1-.3-.5-.4-.9-.1l-.2.2c-.1.3-.3.6-.4.8.1.4.3.8.6 1zM76.8 74.8c.1.1.2.2.4.1.1 0 .2-.2.3-.3l.3-.6c.2-.3.3-.6.2-.9-.1-.3-.5-.5-.8-.3-.1 0-.2.1-.2.1-.2.2-.4.5-.6.7-.1.5.1.9.4 1.2zM78.9 75.5c0 .1.1.2.3.3.1 0 .3 0 .4-.1.2-.1.4-.3.6-.4.3-.2.6-.4.6-.6s-.2-.7-.6-.7h-.3c-.3.1-.6.2-.9.4-.2.3-.2.7-.1 1.1zM82.3 76.9c.1.1.2.1.4 0 .1-.1.2-.2.2-.3.1-.2.1-.5.2-.7.1-.3.2-.7.1-.9-.1-.3-.5-.4-.9-.1l-.2.2c-.1.3-.3.6-.4.8 0 .4.2.8.6 1zM49 67c.1.1.2.2.4.1.1 0 .2-.2.3-.3l.3-.6c.2-.3.3-.6.2-.9-.1-.3-.5-.5-.8-.3-.1 0-.2.1-.2.1-.2.2-.4.5-.6.7 0 .6.1 1 .4 1.2zM51.1 67.8c0 .1.1.2.3.3.1 0 .3 0 .4-.1.2-.1.4-.3.6-.4.3-.2.6-.4.6-.6s-.2-.6-.6-.7h-.3c-.3.1-.6.2-.9.4-.1.3-.2.7-.1 1.1zM54.5 69.2c.1.1.2.1.4 0 .1-.1.2-.2.2-.3.1-.2.1-.5.2-.7.1-.3.2-.7.1-.9s-.5-.4-.9-.1l-.2.2c-.1.3-.3.6-.4.8.1.4.3.8.6 1zM56.9 70.1c.1.1.2.2.4.1.1 0 .2-.2.3-.3l.3-.6c.2-.3.3-.6.2-.9-.1-.3-.5-.5-.8-.3-.1 0-.2.1-.2.1-.2.2-.4.5-.6.7 0 .6.1 1 .4 1.2zM59 70.9c0 .1.1.2.3.3.1 0 .3 0 .4-.1.2-.1.4-.3.6-.4.3-.2.6-.4.6-.6.1-.3-.2-.6-.6-.7H60c-.3.1-.6.2-.9.4-.1.2-.2.7-.1 1.1zM62.4 72.3c.1.1.2.1.4 0 .1-.1.2-.2.2-.3.1-.2.1-.5.2-.7.1-.3.2-.7.1-.9s-.5-.4-.9-.1l-.2.2c-.1.3-.3.6-.4.8 0 .4.3.7.6 1zM64.8 73.2c.1.1.2.2.4.1.1 0 .2-.2.3-.3l.3-.6c.2-.3.3-.6.2-.9-.1-.3-.5-.5-.8-.3-.1 0-.2.1-.2.1-.2.2-.4.5-.6.7-.1.6.1.9.4 1.2zM66.9 73.9c0 .1.1.2.3.3.1 0 .3 0 .4-.1.2-.1.4-.3.6-.4.3-.2.6-.4.6-.6s-.2-.6-.6-.7h-.3c-.3.1-.6.2-.9.4-.2.3-.2.7-.1 1.1zM70.3 75.4c.1.1.2.1.4 0 .1-.1.2-.2.2-.3.1-.2.1-.5.2-.7.1-.3.2-.7.1-.9-.1-.3-.5-.4-.9-.1l-.2.2c-.1.3-.3.6-.4.8 0 .4.2.7.6 1zM72.6 76.3c.1.1.2.2.4.1.1 0 .2-.2.3-.3l.3-.6c.2-.3.3-.6.2-.9-.1-.3-.5-.5-.8-.3-.1 0-.2.1-.2.1-.2.2-.4.5-.6.7 0 .5.1.9.4 1.2zM74.8 77c0 .1.1.2.3.3.1 0 .3 0 .4-.1.2-.1.4-.3.6-.4.3-.2.6-.4.6-.6s-.2-.6-.6-.7h-.3c-.3.1-.6.2-.9.4-.2.3-.3.7-.1 1.1zM44.9 68.6c.1.1.2.2.4.1.1 0 .2-.2.3-.3l.3-.6c.2-.3.3-.6.2-.9-.1-.3-.5-.5-.8-.3-.1 0-.2.1-.2.1-.2.2-.4.5-.6.7 0 .5.1.9.4 1.2zM47 69.3c0 .1.1.2.3.3.1 0 .3 0 .4-.1.2-.1.4-.3.6-.4.3-.2.6-.4.6-.6.1-.3-.2-.6-.6-.7H48c-.3.1-.6.2-.9.4-.1.3-.2.7-.1 1.1zM50.4 70.7c.1.1.2.1.4 0 .1-.1.2-.2.2-.3.1-.2.1-.5.2-.7.1-.3.2-.7.1-.9s-.5-.4-.9-.1l-.2.2c-.1.3-.3.6-.4.8 0 .4.2.8.6 1zM52.8 71.7c.1.1.2.2.4.1.1 0 .2-.2.3-.3l.3-.6c.2-.3.3-.6.2-.9-.1-.3-.5-.5-.8-.3-.1 0-.2.1-.2.1-.2.2-.4.5-.6.7-.1.5.1.9.4 1.2zM54.9 72.4c0 .1.1.2.3.3.1 0 .3 0 .4-.1.2-.1.4-.3.6-.4.3-.2.6-.4.6-.6s-.2-.6-.6-.7h-.3c-.3.1-.6.2-.9.4-.2.3-.2.7-.1 1.1zM58.3 73.8c.1.1.2.1.4 0 .1-.1.2-.2.2-.3.1-.2.1-.5.2-.7.1-.3.2-.7.1-.9-.1-.3-.5-.4-.9-.1l-.2.2c-.1.3-.3.6-.4.8 0 .4.2.8.6 1zM60.6 74.8c.1.1.2.2.4.1.1 0 .2-.2.3-.3l.3-.6c.2-.3.3-.6.2-.9-.1-.3-.5-.5-.8-.3-.1 0-.2.1-.2.1-.2.2-.4.5-.6.7 0 .5.1.9.4 1.2zM62.7 75.5c0 .1.1.2.3.3.1 0 .3 0 .4-.1.2-.1.4-.3.6-.4.3-.2.6-.4.6-.6.1-.3-.2-.6-.6-.7h-.3c-.3.1-.6.2-.9.4-.1.3-.2.7-.1 1.1zM66.1 76.9c.1.1.2.1.4 0 .1-.1.2-.2.2-.3.1-.2.1-.5.2-.7.1-.3.2-.7.1-.9-.1-.3-.5-.4-.9-.1l-.2.2c-.1.3-.3.6-.4.8.1.4.3.8.6 1zM68.5 77.9c.1.1.2.2.4.1.1 0 .2-.2.3-.3l.3-.6c.2-.3.3-.6.2-.9-.1-.3-.5-.5-.8-.3-.1 0-.2.1-.2.1-.2.2-.4.5-.6.7 0 .5.1.9.4 1.2zM70.6 78.6c0 .1.1.2.3.3.1 0 .3 0 .4-.1.2-.1.4-.3.6-.4.3-.2.6-.4.6-.6s-.2-.6-.6-.7h-.3c-.3.1-.6.2-.9.4-.1.3-.2.7-.1 1.1zM40.7 70.1c.1.1.2.2.4.1.1 0 .2-.2.3-.3l.3-.6c.2-.3.3-.6.2-.9-.1-.3-.5-.5-.8-.3-.1 0-.2.1-.2.1-.2.2-.4.5-.6.7 0 .6.1 1 .4 1.2zM42.9 70.9c0 .1.1.2.3.3.1 0 .3 0 .4-.1.2-.1.4-.3.6-.4.3-.2.6-.4.6-.6s-.2-.6-.6-.7h-.3c-.3.1-.6.2-.9.4-.2.3-.3.7-.1 1.1zM46.2 72.3c.1.1.2.1.4 0 .1-.1.2-.2.2-.3.1-.2.1-.5.2-.7.1-.3.2-.7.1-.9s-.5-.4-.9-.1l-.2.2c-.1.3-.3.6-.4.8.1.4.3.8.6 1zM48.6 73.2c.1.1.2.2.4.1.1 0 .2-.2.3-.3l.3-.6c.2-.3.3-.6.2-.9-.1-.3-.5-.5-.8-.3-.1 0-.2.1-.2.1-.2.2-.4.5-.6.7 0 .6.1 1 .4 1.2zM50.7 74c0 .1.1.2.3.3.1 0 .3 0 .4-.1.2-.1.4-.3.6-.4.3-.2.6-.4.6-.6s-.2-.6-.6-.7h-.3c-.3.1-.6.2-.9.4-.1.2-.2.7-.1 1.1zM54.1 75.4c.1.1.2.1.4 0 .1-.1.2-.2.2-.3.1-.2.1-.5.2-.7.1-.3.2-.7.1-.9-.1-.3-.5-.4-.9-.1l-.2.2c-.1.3-.3.6-.4.8.1.4.3.7.6 1zM56.5 76.3c.1.1.2.2.4.1.1 0 .2-.2.3-.3l.3-.6c.2-.3.3-.6.2-.9-.1-.3-.5-.5-.8-.3-.1 0-.2.1-.2.1-.2.2-.4.5-.6.7-.1.6.1.9.4 1.2zM58.6 77c0 .1.1.2.3.3.1 0 .3 0 .4-.1.2-.1.4-.3.6-.4.3-.2.6-.4.6-.6.1-.3-.2-.6-.6-.7h-.3c-.3.1-.6.2-.9.4-.2.3-.2.8-.1 1.1zM62 78.5c.1.1.2.1.4 0 .1-.1.2-.2.2-.3.1-.2.1-.5.2-.7.1-.3.2-.7.1-.9s-.5-.4-.9-.1l-.2.2c-.1.3-.3.6-.4.8 0 .4.2.7.6 1zM64.3 79.4c.1.1.2.2.4.1.1 0 .2-.2.3-.3l.3-.6c.2-.3.3-.6.2-.9-.1-.3-.5-.5-.8-.3-.1 0-.2.1-.2.1-.2.2-.4.5-.6.7 0 .5.2.9.4 1.2zM66.5 80.1c0 .1.1.2.3.3.1 0 .3 0 .4-.1.2-.1.4-.3.6-.4.3-.2.6-.4.6-.6.1-.3-.2-.6-.6-.7h-.3c-.3.1-.6.2-.9.4-.2.3-.3.7-.1 1.1zM36.6 71.7c.1.1.2.2.4.1.1 0 .2-.2.3-.3l.3-.6c.2-.3.3-.6.2-.9-.1-.3-.5-.5-.8-.3-.1 0-.2.1-.2.1-.2.2-.4.5-.6.7 0 .5.1.9.4 1.2zM38.7 72.4c0 .1.1.2.3.3.1 0 .3 0 .4-.1.2-.1.4-.3.6-.4.3-.2.6-.4.6-.6s-.2-.6-.6-.7h-.3c-.3.1-.6.2-.9.4-.1.3-.2.7-.1 1.1zM42.1 73.8c.1.1.2.1.4 0 .1-.1.2-.2.2-.3.1-.2.1-.5.2-.7.1-.3.2-.7.1-.9-.1-.3-.5-.4-.9-.1l-.2.2c-.1.3-.3.6-.4.8 0 .4.3.8.6 1zM44.5 74.8c.1.1.2.2.4.1.1 0 .2-.2.3-.3l.3-.6c.2-.3.3-.6.2-.9-.1-.3-.5-.5-.8-.3-.1 0-.2.1-.2.1-.2.2-.4.5-.6.7-.1.5.1.9.4 1.2zM46.6 75.5c0 .1.1.2.3.3.1 0 .3 0 .4-.1.2-.1.4-.3.6-.4.3-.2.6-.4.6-.6.1-.3-.2-.6-.6-.7h-.3c-.3.1-.6.2-.9.4-.2.3-.2.7-.1 1.1zM50 76.9c.1.1.2.1.4 0 .1-.1.2-.2.2-.3.1-.2.1-.5.2-.7.1-.3.2-.7.1-.9s-.5-.4-.9-.1l-.2.2c-.1.3-.3.6-.4.8 0 .4.2.8.6 1zM52.3 77.9c.1.1.2.2.4.1.1 0 .2-.2.3-.3l.3-.6c.2-.3.3-.6.2-.9-.1-.3-.5-.5-.8-.3-.1 0-.2.1-.2.1-.2.2-.4.5-.6.7 0 .5.1.9.4 1.2zM54.4 78.6c0 .1.1.2.3.3.1 0 .3 0 .4-.1.2-.1.4-.3.6-.4.3-.2.6-.4.6-.6.1-.3-.2-.6-.6-.7h-.3c-.3.1-.6.2-.9.4-.1.3-.2.7-.1 1.1zM57.8 80c.1.1.2.1.4 0 .1-.1.2-.2.2-.3.1-.2.1-.5.2-.7.1-.3.2-.7.1-.9s-.5-.4-.9-.1l-.2.2c-.1.3-.3.6-.4.8.1.4.3.8.6 1zM60.2 81c.1.1.2.2.4.1.1 0 .2-.2.3-.3l.3-.6c.2-.3.3-.6.2-.9-.1-.3-.5-.5-.8-.3-.1 0-.2.1-.2.1-.2.2-.4.5-.6.7 0 .5.1.9.4 1.2zM62.3 81.7c0 .1.1.2.3.3.1 0 .3 0 .4-.1.2-.1.4-.3.6-.4.3-.2.6-.4.6-.6s-.2-.6-.6-.7h-.3c-.3.1-.6.2-.9.4-.1.3-.2.7-.1 1.1zM65.7 81.1l-.2.2c0 .1-.1.2-.1.3l1.2-.3c-.2-.3-.6-.4-.9-.2zM32.5 73.3c.1.1.2.2.4.1.1 0 .2-.2.3-.3l.3-.6c.2-.3.3-.6.2-.9-.1-.3-.5-.5-.8-.3-.1 0-.2.1-.2.1-.2.2-.4.5-.6.7-.1.5.1.9.4 1.2zM34.6 74c0 .1.1.2.3.3.1 0 .3 0 .4-.1.2-.1.4-.3.6-.4.3-.2.6-.4.6-.6.1-.3-.2-.6-.6-.7h-.3c-.3.1-.6.2-.9.4-.2.3-.3.7-.1 1.1zM38 75.4c.1.1.2.1.4 0 .1-.1.2-.2.2-.3.1-.2.1-.5.2-.7.1-.3.2-.7.1-.9s-.5-.4-.9-.1l-.2.2c-.1.3-.3.6-.4.8 0 .4.2.8.6 1zM40.3 76.3c.1.1.2.2.4.1.1 0 .2-.2.3-.3l.3-.6c.2-.3.3-.6.2-.9-.1-.3-.5-.5-.8-.3-.1 0-.2.1-.2.1-.2.2-.4.5-.6.7 0 .6.1 1 .4 1.2zM42.4 77.1c0 .1.1.2.3.3.1 0 .3 0 .4-.1.2-.1.4-.3.6-.4.3-.2.6-.4.6-.6.1-.3-.2-.6-.6-.7h-.3c-.3.1-.6.2-.9.4-.1.3-.2.7-.1 1.1zM45.8 78.5c.1.1.2.1.4 0 .1-.1.2-.2.2-.3.1-.2.1-.5.2-.7.1-.3.2-.7.1-.9s-.5-.4-.9-.1l-.2.2c-.1.3-.3.6-.4.8.1.4.3.7.6 1zM48.2 79.4c.1.1.2.2.4.1.1 0 .2-.2.3-.3l.3-.6c.2-.3.3-.6.2-.9-.1-.3-.5-.5-.8-.3-.1 0-.2.1-.2.1-.2.2-.4.5-.6.7 0 .6.1.9.4 1.2zM50.3 80.2c0 .1.1.2.3.3.1 0 .3 0 .4-.1.2-.1.4-.3.6-.4.3-.2.6-.4.6-.6.1-.3-.2-.6-.6-.7h-.3c-.3.1-.6.2-.9.4-.1.2-.2.7-.1 1.1zM53.7 81.6c.1.1.2.1.4 0 .1-.1.2-.2.2-.3.1-.2.1-.5.2-.7.1-.3.2-.7.1-.9s-.5-.4-.9-.1l-.2.2c-.1.3-.3.6-.4.8 0 .4.2.7.6 1zM56.1 82.5c.1.1.2.2.4.1.1 0 .2-.2.3-.3l.3-.6c.2-.3.3-.6.2-.9-.1-.3-.5-.5-.8-.3-.1 0-.2.1-.2.1-.2.2-.4.5-.6.7-.1.6.1.9.4 1.2zM60 82.4c.1-.3-.2-.6-.6-.7h-.3c-.3.1-.6.2-.9.4-.2.3-.3.6-.2 1 .5-.1 1-.2 1.6-.3.3-.1.4-.2.4-.4zM32.3 74.7c.1-.3-.2-.6-.6-.7h-.3l-.6.3c.1.5.2.9.3 1.4.2-.1.3-.2.5-.3.3-.3.6-.5.7-.7zM33.8 76.9c.1.1.2.1.4 0 .1-.1.2-.2.2-.3.1-.2.1-.5.2-.7.1-.3.2-.7.1-.9s-.5-.4-.9-.1l-.2.2c-.1.3-.3.6-.4.8.1.5.3.8.6 1zM36.2 77.9c.1.1.2.2.4.1.1 0 .2-.2.3-.3l.3-.6c.2-.3.3-.6.2-.9-.1-.3-.5-.5-.8-.3-.1 0-.2.1-.2.1-.2.2-.4.5-.6.7-.1.5.1.9.4 1.2zM38.3 78.6c0 .1.1.2.3.3.1 0 .3 0 .4-.1.2-.1.4-.3.6-.4.3-.2.6-.4.6-.6s-.2-.6-.6-.7h-.3c-.3.1-.6.2-.9.4-.2.3-.2.7-.1 1.1zM41.7 80c.1.1.2.1.4 0 .1-.1.2-.2.2-.3.1-.2.1-.5.2-.7.1-.3.2-.7.1-.9s-.6-.3-.9-.1l-.2.2c-.1.3-.3.6-.4.8 0 .4.2.8.6 1zM44 81c.1.1.2.2.4.1.1 0 .2-.2.3-.3l.3-.6c.2-.3.3-.6.2-.9-.1-.3-.5-.5-.8-.3-.1 0-.2.1-.2.1-.2.2-.4.5-.6.7 0 .5.2.9.4 1.2zM46.2 81.7c0 .1.1.2.3.3.1 0 .3 0 .4-.1.2-.1.4-.3.6-.4.3-.2.6-.4.6-.6s-.2-.6-.6-.7h-.3c-.3.1-.6.2-.9.4-.2.3-.3.7-.1 1.1zM49.6 83.1c.1.1.2.1.4 0 .1-.1.2-.2.2-.3.1-.2.1-.5.2-.7.1-.3.2-.7.1-.9s-.5-.4-.9-.1l-.2.2c-.1.3-.3.6-.4.8 0 .4.2.8.6 1zM51.9 84.1c.1.1.2.2.4.1.1 0 .2-.2.3-.3l.3-.6c.2-.3.3-.6.2-.9-.1-.3-.5-.5-.8-.3-.1 0-.2.1-.2.1-.2.2-.4.5-.6.7 0 .5.1.9.4 1.2zM55.3 83.3H55c-.3.1-.6.2-.9.4-.1.1-.1.2-.1.3.6-.1 1.1-.3 1.7-.4 0-.2-.2-.3-.4-.3z" fill="#5362ac" data-color="2"/><path d="M94 43.3c.7-.6 1.3-1.3 2-1.9 2-1.9 4.3-3.6 7.4-3.9.9 0 1.7.1 2.6.3 2.5.5 4.8 1.8 6.5 4-.7 1.7-1.6 3.2-2.6 4.7-.5.7-1 1.4-1.6 2.1-4.8 4.9-10.4 8.9-15.6 13.4-.9.7-1.7 1.5-2.6 2.3-2.5 2-4.4 4.1-6.6 6.1-6.2 5.9-9.3 14.8-16.4 19.5-1 .7-2 1.4-3 2-5.1 2.9-10.6 3.8-13.7-1.5-3.3-5.8.1-10.9 4.5-14.9l1.8-1.5c.6-.5 1.2-1 1.8-1.4 1.7-1 3.4-2.1 5-3.3l2.4-1.8c2.3-1.9 4.4-3.6 6.7-5.7.7-.7 1.4-1.3 2.1-2 1.6-1.2 2.6-2.9 4.2-4.2l2.1-2.1c2.8-3.2 7.3-4.6 10.4-7.7.8-.8 1.7-1.6 2.6-2.5z" fill="#f9a889" data-color="3"/><path d="M96.2 77.3c3.8.4 7.1 3.1 10.6 3.9 1.1.3 2.1.6 3.1.8.9.3 1.9.6 3 .8s2.2.5 3.4.7c6.6 1.7 13 1.3 19.1 4-6.4 3.6-12.2 9-19.9 8.6-1.1 0-2.3-.1-3.4-.2h-3.9c-1.2.1-2.4.2-3.4.4-1.3 0-2.7 0-4 .1-4.2-.2-8 1.3-12 1.8-.8.1-1.6.2-2.4.2-4.7.5-9.8.7-14.4.8h-3c-3 0-6-.1-9-.2-2.7-.1-5.5-.3-7.9-1.6-4.1-2.2-5.4-7.8-1.7-11.1 2.1-1.8 5.8-2.2 9-2.6 1.1-.1 2.1-.3 2.9-.5 10-3.5 19.9-7.9 30.5-6.5 1.1.2 2.3.3 3.4.6z" fill="#5362ac" data-color="2"/><path d="M85.1 95.8c-11.4-1.3-21-10.5-32.4-10.7-4.1-.1-8.7 1.5-10.2 5.4-1.7 4.4 1.2 10.3-2.1 13.6-1.6 1.6-4.2 1.9-6 3.3-3.5 2.9-2.1 8.4-1.8 13 .3 5.2-1.2 10.3-2.2 15.5-.1-.6-.3-1.3-.4-1.9-.2-1-.4-2-.6-3.1-.2-1-.3-2-.5-3.1-2.8-11.1-.2-22.3 4.3-33.1.3-.9.6-1.8.7-2.7.4-2.8 0-5.9-.5-8.9-.1-.8-.3-1.6-.4-2.3-.2-.8-.4-1.5-.6-2.3-.2-.8-4.4-9.6-4.5-14.1.6-9.5-4.4 4.5-5.5 10.8-.2 1-.2 2-.3 3-.2 1.9.4 5.1.7 6.1.4 1.8.9 3.6 1.4 5.4.2.9.5 1.8.7 2.7 3.3 10.8-1.4 22-1.3 32.8v3c0 3 .4 5.9 1.2 8.8.3 1.1.7 2.3 1.1 3.4 1.2 3.4 3.1 6.3 5.4 8.9v-.3c.4.8 1 1.4 1.7 2.1.2.2.5.4.7.6.4.7.7 1.5.8 2.4.2 2.1-.3 4.1-.8 6.2-.7 3.2-1.2 6.5-1.6 9.8-.2 2.5-.4 5 .2 7.4.6 2.4 1.9 4.8 4 6 1.6 1 4.3.8 4.8-1 .2-.7 0-1.5-.2-2.2-1.1-4.3-1.6-8.8-1.5-13.3.1-3 .5-6 1.6-8.7.7-1.6 1.7-3.1 2.9-4.4 1.6-.2 3.1-.5 4.4-1 5.3-1.9 9.6-5.8 13.3-10.1C69.9 133.3 76 122 84.8 113c8.5-8.5 19.3-14.3 31-16.9-9.5-4.3-20.4.8-30.7-.3z" fill="#190e40" data-color="4"/><path d="M58.4 69s18-34.4 8.6-50.2l-1.3 1s10.3 8-8.5 49.3 1.2-.1 1.2-.1z" fill="#190e40" data-color="4"/><path d="M64.2 16.4c1.6-1.5 3.6-1.9 4.5-.9.8 1 .2 2.9-1.4 4.4-1.6 1.5-3.6 1.9-4.5.9-.8-1-.2-2.9 1.4-4.4z" fill="#f9a889" data-color="3"/><path d="M52.7 69s9.9-35 0-46.2l-.9 1.3s9.5 4.2-.1 45.4 1-.5 1-.5z" fill="#190e40" data-color="4"/><path d="M50.9 22.4c1.2-1.8 2.6-3 3.2-2.6.6.4.1 2.2-1 4-1.2 1.8-2.6 3-3.2 2.6-.6-.5-.2-2.2 1-4z" fill="#f9a889" data-color="3"/><path d="M46.5 70.6s2.3-32.3-7-38.7l-.5 1.3s7.9.7 6.8 38.1.7-.7.7-.7z" fill="#190e40" data-color="4"/><path d="M35.7 31.2c.6-1.9 2.1-3.1 3.3-2.7 1.2.4 1.6 2.2 1 4.1s-2.1 3.1-3.3 2.7c-1.2-.4-1.7-2.2-1-4.1z" fill="#f9a889" data-color="3"/><path d="M88.1 51c.1 0 .1 0 .2-.1s.1-.1 0-.2v-.4c0-.1 0-.2-.1-.3l-.6.3v.3c.1.2.3.4.5.4zM89.3 50.7s.1.1.2.1.1-.1.1-.2c.1-.1.1-.2.2-.3.1-.2.1-.3.1-.5 0-.1-.3-.2-.5-.1l-.1.1c-.1.1-.2.3-.3.4 0 .2.1.4.3.5zM91.2 50.4c.1 0 .1 0 .2-.1v-.2c0-.1-.1-.2-.1-.4s-.1-.4-.2-.4c-.1-.1-.4 0-.4.2v.1c0 .2 0 .3.1.5 0 .2.2.3.4.3zM92.8 49.5v-.2c-.2-.1-.4-.2-.5-.3 0 0-.1 0-.1.1 0 0 0 .1-.1.1v.5c.1.2.3.3.5.4.1 0 .1 0 .2-.1s.1-.1 0-.2v-.3zM85.5 52.9c0-.1-.1-.2-.1-.4v-.1l-.1.1c0 .2-.1.4-.3.6.1 0 .2.1.3.1.1 0 .1 0 .2-.1v-.2zM86.7 52.9c.1 0 .1 0 .2-.1s.1-.1 0-.2v-.4c0-.2 0-.4-.1-.5-.1-.1-.3-.1-.5.1 0 0 0 .1-.1.1v.5c.1.3.2.5.5.5zM87.8 52.6s.1.1.2.1.1-.1.1-.2c.1-.1.1-.2.2-.3.1-.2.1-.3.1-.5 0-.1-.3-.2-.5-.1l-.1.1c-.1.1-.2.3-.3.4.1.2.2.4.3.5zM89.8 52.3c.1 0 .1 0 .2-.1V52c0-.1-.1-.2-.1-.4s-.1-.4-.2-.4c-.1-.1-.4 0-.4.2v.1c0 .2 0 .3.1.5 0 .2.2.3.4.3zM91.1 52c.1 0 .1 0 .2-.1s.1-.1 0-.2v-.4c0-.2 0-.4-.1-.5s-.3-.1-.5.1c0 0 0 .1-.1.1v.5c.1.3.3.5.5.5zM92.3 51.7s.1.1.2.1.1-.1.1-.2c.1-.1.1-.2.2-.3.1-.2.1-.3.1-.5 0-.1-.3-.2-.5-.1l-.1.1c-.1.1-.2.3-.3.4 0 .2.1.4.3.5zM94.2 51.4c.1 0 .1 0 .2-.1v-.2c0-.1-.1-.2-.1-.4s-.1-.4-.2-.4c-.1-.1-.4 0-.4.2v.1c0 .2 0 .3.1.5 0 .2.2.3.4.3zM95.8 50.5c0-.1 0-.1 0 0-.2-.2-.4-.3-.6-.4 0 0 0 .1-.1.1v.5c.1.2.3.3.5.4.1 0 .1 0 .2-.1s.1-.1 0-.2v-.3zM84 54.4c0-.1-.1-.3-.1-.3h-.1c-.2.1-.3.2-.5.2 0 .2 0 .3.1.5s.3.3.6.3c.1 0 .1 0 .2-.1v-.2c-.2-.1-.2-.3-.2-.4zM85.2 54.8c.1 0 .1 0 .2-.1s.1-.1 0-.2v-.4c0-.2 0-.4-.1-.5-.1-.1-.3-.1-.5.1 0 0 0 .1-.1.1v.5c.1.4.3.5.5.5zM86.4 54.5s.1.1.2.1.1-.1.1-.2c.1-.1.1-.2.2-.3.1-.2.1-.3.1-.5 0-.1-.3-.2-.5-.1l-.1.1c-.1.1-.2.3-.3.4 0 .2.1.4.3.5zM88.3 54.2c.1 0 .1 0 .2-.1v-.2c0-.1-.1-.2-.1-.4s-.1-.4-.2-.4c-.1-.1-.4 0-.4.2v.1c0 .2 0 .3.1.5 0 .2.2.3.4.3zM89.7 53.9c.1 0 .1 0 .2-.1s.1-.1 0-.2v-.4c0-.2 0-.4-.1-.5-.1-.1-.3-.1-.5.1 0 0 0 .1-.1.1v.5c.1.4.3.5.5.5zM90.9 53.6s.1.1.2.1.1-.1.1-.2c.1-.1.1-.2.2-.3.1-.2.1-.3.1-.5 0-.1-.3-.2-.5-.1l-.1.1c-.1.1-.2.3-.3.4 0 .2.1.4.3.5zM92.8 53.3c.1 0 .1 0 .2-.1V53c0-.1-.1-.2-.1-.4s-.1-.4-.2-.4c-.1-.1-.4 0-.4.2v.1c0 .2 0 .3.1.5 0 .2.2.3.4.3zM94.2 53c.1 0 .1 0 .2-.1s.1-.1 0-.2v-.4c0-.2 0-.4-.1-.5-.1-.1-.3-.1-.5.1 0 0 0 .1-.1.1v.5c.1.4.2.5.5.5zM95.3 52.7s.1.1.2.1.1-.1.1-.2c.1-.1.1-.2.2-.3.1-.2.1-.3.1-.5 0-.1-.3-.2-.5-.1l-.1.1c-.1.1-.2.3-.3.4.1.2.2.4.3.5zM97.3 52.4c.1 0 .1 0 .2-.1v-.2c0-.1-.1-.2-.1-.4s-.1-.4-.2-.4c-.1-.1-.4 0-.4.2v.1c0 .2 0 .3.1.5 0 .2.2.3.4.3zM80.9 56.3c-.2.1-.4.3-.6.4l-.1.1c0 .2.1.4.2.6 0 0 .1.1.2.1s.1-.1.1-.2c.1-.1.1-.2.2-.3.1-.2.1-.3.1-.5.1-.1 0-.2-.1-.2zM82.4 57c.1 0 .1 0 .2-.1v-.2c0-.1-.1-.2-.1-.4s-.1-.4-.2-.4c-.1-.1-.4 0-.4.2v.1c0 .2 0 .3.1.5 0 .2.2.3.4.3zM83.8 56.8c.1 0 .1 0 .2-.1s.1-.1 0-.2v-.4c0-.2 0-.4-.1-.5s-.3-.1-.5.1c0 0 0 .1-.1.1v.5c.1.3.3.4.5.5zM85 56.5s.1.1.2.1.1-.1.1-.2c.1-.1.1-.2.2-.3.1-.2.1-.3.1-.5 0-.1-.3-.2-.5-.1l-.1.1c-.1.1-.2.3-.3.4 0 .1.1.3.3.5zM86.9 56.1c.1 0 .1 0 .2-.1v-.2c0-.1-.1-.2-.1-.4s-.1-.4-.2-.4c-.1-.1-.4 0-.4.2v.1c0 .2 0 .3.1.5 0 .2.2.3.4.3zM88.3 55.9c.1 0 .1 0 .2-.1s.1-.1 0-.2v-.4c0-.2 0-.4-.1-.5-.1-.1-.3-.1-.5.1 0 0 0 .1-.1.1v.5c.1.3.2.4.5.5zM89.4 55.6s.1.1.2.1.1-.1.1-.2c.1-.1.1-.2.2-.3.1-.2.1-.3.1-.5 0-.1-.3-.2-.5-.1l-.1.1c-.1.1-.2.3-.3.4.1.1.2.3.3.5zM91.4 55.2c.1 0 .1 0 .2-.1v-.2c0-.1-.1-.2-.1-.4s-.1-.4-.2-.4c-.1-.1-.4 0-.4.2v.1c0 .2 0 .3.1.5 0 .2.1.3.4.3zM92.7 55c.1 0 .1 0 .2-.1s.1-.1 0-.2v-.4c0-.2 0-.4-.1-.5-.1-.1-.3-.1-.5.1 0 0 0 .1-.1.1v.5c.1.3.3.4.5.5zM93.9 54.7s.1.1.2.1.1-.1.1-.2c.1-.1.1-.2.2-.3.1-.2.1-.3.1-.5 0-.1-.3-.2-.5-.1l-.1.1c-.1.1-.2.3-.3.4 0 .1.1.3.3.5zM95.8 54.3c.1 0 .1 0 .2-.1V54c0-.1-.1-.2-.1-.4s-.1-.4-.2-.4c-.1-.1-.4 0-.4.2v.1c0 .2 0 .3.1.5 0 .2.2.3.4.3zM97.1 54c.1-.2.2-.3.3-.5v-.1c0-.2 0-.4-.1-.5s-.3-.1-.5.1c0 0 0 .1-.1.1v.5c.1.2.2.4.4.4zM77.9 59.6c.1 0 .1 0 .2-.1s.1-.1 0-.2v-.4c0-.2 0-.4-.1-.5 0 0-.1 0-.1-.1l-.4.4v.4c0 .3.2.4.4.5zM79 59.3s.1.1.2.1.1-.1.1-.2c.1-.1.1-.2.2-.3.1-.2.1-.3.1-.5 0-.1-.3-.2-.5-.1l-.1.1c-.1.1-.2.3-.3.4.1.1.2.3.3.5zM81 58.9c.1 0 .1 0 .2-.1v-.2c0-.1-.1-.2-.1-.4s-.1-.4-.2-.4c-.1-.1-.4 0-.4.2v.1c0 .2 0 .3.1.5 0 .2.2.3.4.3zM82.3 58.7c.1 0 .1 0 .2-.1s.1-.1 0-.2V58c0-.2 0-.4-.1-.5s-.3-.1-.5.1c0 0 0 .1-.1.1v.5c.2.3.3.4.5.5zM83.5 58.4s.1.1.2.1.1-.1.1-.2c.1-.1.1-.2.2-.3.1-.2.1-.3.1-.5 0-.1-.3-.2-.5-.1l-.1.1c-.1.1-.2.3-.3.4.1.1.1.3.3.5zM85.5 58c.1 0 .1 0 .2-.1v-.2c0-.1-.1-.2-.1-.4s-.1-.4-.2-.4c-.1-.1-.4 0-.4.2v.1c0 .2 0 .3.1.5-.1.2.1.3.4.3zM86.8 57.8c.1 0 .1 0 .2-.1s.1-.1 0-.2v-.4c0-.2 0-.4-.1-.5s-.3-.1-.5.1c0 0 0 .1-.1.1v.5c.1.3.3.4.5.5zM88 57.5s.1.1.2.1.1-.1.1-.2c.1-.1.1-.2.2-.3.1-.2.1-.3.1-.5 0-.1-.3-.2-.5-.1l-.1.1c-.1.1-.2.3-.3.4 0 .1.1.3.3.5zM89.9 57.1c.1 0 .1 0 .2-.1v-.2c0-.1-.1-.2-.1-.4s-.1-.4-.2-.4c-.1-.1-.4 0-.4.2v.1c0 .2 0 .3.1.5 0 .2.2.3.4.3zM91.3 56.9c.1 0 .1 0 .2-.1s.1-.1 0-.2v-.4c0-.2 0-.4-.1-.5-.1-.1-.3-.1-.5.1 0 0 0 .1-.1.1v.5c.1.3.3.4.5.5zM92.5 56.6s.1.1.2.1.1-.1.1-.2c.1-.1.1-.2.2-.3.1-.2.1-.3.1-.5 0-.1-.3-.2-.5-.1l-.1.1c-.1.1-.2.3-.3.4 0 .1.1.3.3.5zM94.4 56.2c.1 0 .1 0 .2-.1v-.2c0-.1-.1-.2-.1-.4s-.1-.4-.2-.4c-.1-.1-.4 0-.4.2v.1c0 .2 0 .3.1.5 0 .2.2.3.4.3zM95.9 55.8c0-.1.1-.1.1-.2v-.3c0-.2 0-.4-.1-.5-.1-.1-.3-.1-.5.1 0 0 0 .1-.1.1v.5c.1.2.3.3.5.4l.1-.1zM75.1 61.8c.1 0 .1 0 .2-.1v-.2c0-.1-.1-.2-.1-.4V61c-.2.2-.4.3-.6.5.1.2.3.3.5.3zM76.4 61.5c.1 0 .1 0 .2-.1s.1-.1 0-.2v-.4c0-.2 0-.4-.1-.5-.1-.1-.3-.1-.5.1 0 0 0 .1-.1.1v.5c.1.3.3.5.5.5zM77.6 61.2s.1.1.2.1.1-.1.1-.2c.1-.1.1-.2.2-.3.1-.2.1-.3.1-.5 0-.1-.3-.2-.5-.1l-.1.1c-.1.1-.2.3-.3.4 0 .2.1.4.3.5zM79.6 60.9c.1 0 .1 0 .2-.1v-.2c0-.1-.1-.2-.1-.4s-.1-.4-.2-.4c-.1-.1-.4 0-.4.2v.1c0 .2 0 .3.1.5-.1.2.1.3.4.3zM80.9 60.6c.1 0 .1 0 .2-.1s.1-.1 0-.2v-.4c0-.2 0-.4-.1-.5-.1-.1-.3-.1-.5.1 0 0 0 .1-.1.1v.5c.1.3.3.5.5.5zM82.1 60.3s.1.1.2.1.1-.1.1-.2c.1-.1.1-.2.2-.3.1-.2.1-.3.1-.5 0-.1-.3-.2-.5-.1l-.1.1c-.1.1-.2.3-.3.4 0 .2.1.4.3.5zM84 60c.1 0 .1 0 .2-.1v-.2c0-.1-.1-.2-.1-.4s-.1-.4-.2-.4c-.1-.1-.4 0-.4.2v.1c0 .2 0 .3.1.5 0 .2.2.3.4.3zM85.4 59.7c.1 0 .1 0 .2-.1s.1-.1 0-.2V59c0-.2 0-.4-.1-.5s-.3-.1-.5.1c0 0 0 .1-.1.1v.5c.1.3.3.5.5.5zM86.5 59.4s.1.1.2.1.1-.1.1-.2c.1-.1.1-.2.2-.3.1-.2.1-.3.1-.5 0-.1-.3-.2-.5-.1l-.1.1c-.1.1-.2.3-.3.4.1.2.2.4.3.5zM88.5 59.1c.1 0 .1 0 .2-.1v-.2c0-.1-.1-.2-.1-.4s-.1-.4-.2-.4c-.1-.1-.4 0-.4.2v.1c0 .2 0 .3.1.5 0 .2.2.3.4.3zM89.8 58.8c.1 0 .1 0 .2-.1s.1-.1 0-.2v-.4c0-.2 0-.4-.1-.5s-.3-.1-.5.1c0 0 0 .1-.1.1v.5c.2.3.3.5.5.5zM91 58.5s.1.1.2.1.1-.1.1-.2c.1-.1.1-.2.2-.3.1-.2.1-.3.1-.5 0-.1-.3-.2-.5-.1l-.1.1c-.1.1-.2.3-.3.4.1.2.1.4.3.5zM93 58.2c.1 0 .1 0 .2-.1v-.2c0-.1-.1-.2-.1-.4s-.1-.4-.2-.4c-.1-.1-.4 0-.4.2v.1c0 .2 0 .3.1.5-.1.2.1.3.4.3zM94.4 56.8c-.1-.1-.3-.1-.5.1 0 0 0 .1-.1.1v.5c.1.1.2.3.3.3.1-.1.3-.2.4-.4v-.2c0-.1 0-.3-.1-.4zM73.1 63.4c.1.2.3.3.6.3.1 0 .1 0 .2-.1v-.2c0-.1-.1-.2-.1-.4s-.1-.4-.2-.4h-.1l-.3.3v.1c-.1.1-.1.2-.1.4zM75 63.4c.1 0 .1 0 .2-.1s.1-.1 0-.2v-.4c0-.2 0-.4-.1-.5s-.3-.1-.5.1c0 0 0 .1-.1.1v.5c.1.3.3.5.5.5zM76.2 63.1s.1.1.2.1.1-.1.1-.2c.1-.1.1-.2.2-.3.1-.2.1-.3.1-.5 0-.1-.3-.2-.5-.1l-.1.1c-.1.1-.2.3-.3.4 0 .2.1.4.3.5zM78.1 62.8c.1 0 .1 0 .2-.1v-.2c0-.1-.1-.2-.1-.4s-.1-.4-.2-.4c-.1-.1-.4 0-.4.2v.1c0 .2 0 .3.1.5 0 .2.2.3.4.3zM79.5 62.5c.1 0 .1 0 .2-.1s.1-.1 0-.2v-.4c0-.2 0-.4-.1-.5-.1-.1-.3-.1-.5.1 0 0 0 .1-.1.1v.5c.1.3.3.5.5.5zM80.6 62.2s.1.1.2.1.1-.1.1-.2c.1-.1.1-.2.2-.3.1-.2.1-.3.1-.5 0-.1-.3-.2-.5-.1l-.1.1c-.1.1-.2.3-.3.4.1.2.2.4.3.5zM82.6 61.9c.1 0 .1 0 .2-.1v-.2c0-.1-.1-.2-.1-.4s-.1-.4-.2-.4c-.1-.1-.4 0-.4.2v.1c0 .2 0 .3.1.5 0 .2.2.3.4.3zM83.9 61.6c.1 0 .1 0 .2-.1s.1-.1 0-.2v-.4c0-.2 0-.4-.1-.5-.1-.1-.3-.1-.5.1 0 0 0 .1-.1.1v.5c.1.3.3.5.5.5zM85.1 61.3s.1.1.2.1.1-.1.1-.2c.1-.1.1-.2.2-.3.1-.2.1-.3.1-.5 0-.1-.3-.2-.5-.1l-.1.1c-.1.1-.2.3-.3.4.1.2.1.4.3.5zM87.1 61c.1 0 .1 0 .2-.1v-.2c0-.1-.1-.2-.1-.4s-.1-.4-.2-.4c-.1-.1-.4 0-.4.2v.1c0 .2 0 .3.1.5-.1.2.1.3.4.3zM88.4 60.7c.1 0 .1 0 .2-.1s.1-.1 0-.2V60c0-.2 0-.4-.1-.5s-.3-.1-.5.1c0 0 0 .1-.1.1v.5c.1.3.3.5.5.5zM89.6 60.4s.1.1.2.1.1-.1.1-.2c.1-.1.1-.2.2-.3.1-.2.1-.3.1-.5 0-.1-.3-.2-.5-.1l-.1.1c-.1.1-.2.3-.3.4 0 .2.1.4.3.5zM91.5 60.1c.1 0 .1 0 .2-.1v-.2c0-.1-.1-.2-.1-.4s-.1-.4-.2-.4c-.1-.1-.4 0-.4.2v.1c0 .2 0 .3.1.5 0 .2.2.3.4.3zM92.9 58.7c-.1-.1-.3-.1-.5.1 0 0 0 .1-.1.1v.6l.6-.6c.1-.1.1-.1 0-.2zM70.8 64.9l-.2.2c-.2.2-.3.4-.5.6 0 .1.1.2.2.3 0 0 .1.1.2.1s.1-.1.1-.2c.1-.1.1-.2.2-.3.1-.2.1-.3.1-.5-.1-.1-.1-.2-.1-.2zM72.2 65.6c.1 0 .1 0 .2-.1v-.2c0-.1-.1-.2-.1-.4s-.1-.4-.2-.4c-.1-.1-.4 0-.4.2v.1c0 .2 0 .3.1.5 0 .2.2.3.4.3zM73.6 65.3c.1 0 .1 0 .2-.1s.1-.1 0-.2v-.4c0-.2 0-.4-.1-.5-.1-.1-.3-.1-.5.1 0 0 0 .1-.1.1v.5c.1.4.2.5.5.5zM74.7 65s.1.1.2.1.1-.1.1-.2c.1-.1.1-.2.2-.3.1-.2.1-.3.1-.5 0-.1-.3-.2-.5-.1l-.1.1c-.1.1-.2.3-.3.4.1.2.2.4.3.5zM76.7 64.7c.1 0 .1 0 .2-.1v-.2c0-.1-.1-.2-.1-.4s-.1-.4-.2-.4c-.1-.1-.4 0-.4.2v.1c0 .2 0 .3.1.5 0 .2.2.3.4.3zM78 64.4c.1 0 .1 0 .2-.1s.1-.1 0-.2v-.4c0-.2 0-.4-.1-.5s-.3-.1-.5.1c0 0 0 .1-.1.1v.5c.1.4.3.5.5.5zM79.2 64.1s.1.1.2.1.1-.1.1-.2c.1-.1.1-.2.2-.3.1-.2.1-.3.1-.5 0-.1-.3-.2-.5-.1l-.1.1c-.1.1-.2.3-.3.4 0 .2.1.4.3.5zM81.1 63.8c.1 0 .1 0 .2-.1v-.2c0-.1-.1-.2-.1-.4s-.1-.4-.2-.4c-.1-.1-.4 0-.4.2v.1c0 .2 0 .3.1.5 0 .2.2.3.4.3zM82.5 63.5c.1 0 .1 0 .2-.1s.1-.1 0-.2v-.4c0-.2 0-.4-.1-.5-.1-.1-.3-.1-.5.1 0 0 0 .1-.1.1v.5c.1.4.3.5.5.5zM83.7 63.2s.1.1.2.1.1-.1.1-.2c.1-.1.1-.2.2-.3.1-.2.1-.3.1-.5 0-.1-.3-.2-.5-.1l-.1.1c-.1.1-.2.3-.3.4 0 .2.1.4.3.5zM85.6 62.9c.1 0 .1 0 .2-.1v-.2c0-.1-.1-.2-.1-.4s-.1-.4-.2-.4c-.1-.1-.4 0-.4.2v.1c0 .2 0 .3.1.5 0 .2.2.3.4.3zM87 62.6c.1 0 .1 0 .2-.1s.1-.1 0-.2v-.4c0-.2 0-.4-.1-.5s-.3-.1-.5.1c0 0 0 .1-.1.1v.5c.1.4.3.5.5.5zM88.1 62.3s.1.1.2.1.1-.1.1-.2c.1-.1.1-.2.2-.3.1-.2.1-.3.1-.5 0-.1-.3-.2-.5-.1l-.1.1c-.1.1-.2.3-.3.4.1.2.2.4.3.5zM89.9 60.9c-.1-.1-.4 0-.4.2v.1c0 .2 0 .3.1.5l.2.2c.2-.1.3-.3.5-.4v-.1c-.2-.2-.2-.4-.4-.5zM69.1 66.8c-.1.1-.2.2-.3.2-.1.1-.1.2-.2.3 0 .2.1.4.2.6 0 0 .1.1.2.1s.1-.1.1-.2c.1-.1.1-.2.2-.3.1-.2.1-.3.1-.5s-.2-.3-.3-.2zM70.8 67.5c.1 0 .1 0 .2-.1v-.2c0-.1-.1-.2-.1-.4s-.1-.4-.2-.4c-.1-.1-.4 0-.4.2v.1c0 .2 0 .3.1.5-.1.2.1.3.4.3zM72.1 67.3c.1 0 .1 0 .2-.1s.1-.1 0-.2v-.4c0-.2 0-.4-.1-.5-.1-.1-.3-.1-.5.1 0 0 0 .1-.1.1v.5c.1.3.3.4.5.5zM73.3 67s.1.1.2.1.1-.1.1-.2c.1-.1.1-.2.2-.3.1-.2.1-.3.1-.5 0-.1-.3-.2-.5-.1l-.1.1c-.1.1-.2.3-.3.4 0 .1.1.3.3.5zM75.2 66.6c.1 0 .1 0 .2-.1v-.2c0-.1-.1-.2-.1-.4s-.1-.4-.2-.4c-.1-.1-.4 0-.4.2v.1c0 .2 0 .3.1.5 0 .2.2.3.4.3zM76.6 66.4c.1 0 .1 0 .2-.1s.1-.1 0-.2v-.4c0-.2 0-.4-.1-.5-.1-.1-.3-.1-.5.1 0 0 0 .1-.1.1v.5c.1.3.3.4.5.5zM77.8 66.1s.1.1.2.1.1-.1.1-.2c.1-.1.1-.2.2-.3.1-.2.1-.3.1-.5 0-.1-.3-.2-.5-.1l-.1.1c-.1.1-.2.3-.3.4 0 .1.1.3.3.5zM79.7 65.7c.1 0 .1 0 .2-.1v-.2c0-.1-.1-.2-.1-.4s-.1-.4-.2-.4c-.1-.1-.4 0-.4.2v.1c0 .2 0 .3.1.5 0 .2.2.3.4.3zM81.1 65.5c.1 0 .1 0 .2-.1s.1-.1 0-.2v-.4c0-.2 0-.4-.1-.5-.1-.1-.3-.1-.5.1 0 0 0 .1-.1.1v.5c.1.3.2.4.5.5zM82.2 65.2s.1.1.2.1.1-.1.1-.2c.1-.1.1-.2.2-.3.1-.2.1-.3.1-.5 0-.1-.3-.2-.5-.1l-.1.1c-.1.1-.2.3-.3.4.1.1.2.3.3.5zM84.2 64.8c.1 0 .1 0 .2-.1v-.2c0-.1-.1-.2-.1-.4s-.1-.4-.2-.4c-.1-.1-.4 0-.4.2v.1c0 .2 0 .3.1.5 0 .2.2.3.4.3zM85.5 64.6c.1 0 .1 0 .2-.1s.1-.1 0-.2v-.4c0-.2 0-.4-.1-.5-.1-.1-.3-.1-.5.1 0 0 0 .1-.1.1v.5c.1.3.3.4.5.5zM87.3 63.3c0-.1-.3-.2-.5-.1l-.1.1c-.1.1-.2.3-.3.4 0 .2.1.4.2.6.1-.1.3-.2.4-.3 0-.1 0-.1.1-.2.2-.1.2-.3.2-.5zM66.4 69.4c0-.2 0-.3-.1-.4-.2.1-.4.3-.6.4v.3c.1.2.3.3.5.4.1 0 .1 0 .2-.1s.1-.1 0-.2v-.4zM67.4 69.8s.1.1.2.1.1-.1.1-.2c.1-.1.1-.2.2-.3.1-.2.1-.3.1-.5 0-.1-.3-.2-.5-.1l-.1.1c-.1.1-.2.3-.3.4 0 .1.1.3.3.5zM69.3 69.4c.1 0 .1 0 .2-.1v-.2c0-.1-.1-.2-.1-.4s-.1-.4-.2-.4c-.1-.1-.4 0-.4.2v.1c0 .2 0 .3.1.5 0 .2.2.3.4.3zM70.7 69.2c.1 0 .1 0 .2-.1s.1-.1 0-.2v-.4c0-.2 0-.4-.1-.5-.1-.1-.3-.1-.5.1 0 0 0 .1-.1.1v.5c.1.3.3.4.5.5zM71.8 68.9s.1.1.2.1.1-.1.1-.2c.1-.1.1-.2.2-.3.1-.2.1-.3.1-.5 0-.1-.3-.2-.5-.1l-.1.1c-.1.1-.2.3-.3.4.1.1.2.3.3.5zM73.8 68.5c.1 0 .1 0 .2-.1v-.2c0-.1-.1-.2-.1-.4s-.1-.4-.2-.4c-.1-.1-.4 0-.4.2v.1c0 .2 0 .3.1.5 0 .2.2.3.4.3zM75.2 68.3c.1 0 .1 0 .2-.1s.1-.1 0-.2v-.4c0-.2 0-.4-.1-.5-.1-.1-.3-.1-.5.1 0 0 0 .1-.1.1v.5c.1.3.2.4.5.5zM76.3 68s.1.1.2.1.1-.1.1-.2c.1-.1.1-.2.2-.3.1-.2.1-.3.1-.5 0-.1-.3-.2-.5-.1l-.1.1c-.1.1-.2.3-.3.4.1.1.1.3.3.5zM78.3 67.6c.1 0 .1 0 .2-.1v-.2c0-.1-.1-.2-.1-.4s-.1-.4-.2-.4c-.1-.1-.4 0-.4.2v.1c0 .2 0 .3.1.5-.1.2.1.3.4.3zM79.6 67.4c.1 0 .1 0 .2-.1s.1-.1 0-.2v-.4c0-.2 0-.4-.1-.5-.1-.1-.3-.1-.5.1 0 0 0 .1-.1.1v.5c.1.3.3.4.5.5zM80.8 67.1s.1.1.2.1.1-.1.1-.2c.1-.1.1-.2.2-.3.1-.2.1-.3.1-.5 0-.1-.3-.2-.5-.1l-.1.1c-.1.1-.2.3-.3.4 0 .1.1.3.3.5zM82.7 66.7c.1 0 .1 0 .2-.1v-.2c0-.1-.1-.2-.1-.4s-.1-.4-.2-.4c-.1-.1-.4 0-.4.2v.1c0 .2 0 .3.1.5 0 .2.2.3.4.3zM84.3 65.8c0-.2 0-.4-.1-.5-.1-.1-.3-.1-.5.1 0 0 0 .1-.1.1v.5c.1.2.3.3.5.4.1-.1.2-.1.2-.2v-.4zM85.4 65.1l-.1.1c-.1.1-.2.3-.3.4v.1c.2-.2.5-.4.7-.6h-.3zM63.5 71.6c0-.1 0-.2-.1-.2-.2.2-.4.3-.6.5v.2c.1.2.3.3.6.3.1 0 .1 0 .2-.1v-.2c0-.3-.1-.4-.1-.5zM64.8 72c.1 0 .1 0 .2-.1s.1-.1 0-.2v-.4c0-.2 0-.4-.1-.5-.1-.1-.3-.1-.5.1 0 0 0 .1-.1.1v.5c.1.3.3.5.5.5zM65.9 71.7s.1.1.2.1.1-.1.1-.2c.1-.1.1-.2.2-.3.1-.2.1-.3.1-.5 0-.1-.3-.2-.5-.1l-.1.1c-.1.1-.2.3-.3.4.1.2.2.4.3.5zM67.9 71.4c.1 0 .1 0 .2-.1v-.2c0-.1-.1-.2-.1-.4s-.1-.4-.2-.4c-.1-.1-.4 0-.4.2v.1c0 .2 0 .3.1.5 0 .2.2.3.4.3zM69.2 71.1c.1 0 .1 0 .2-.1s.1-.1 0-.2v-.4c0-.2 0-.4-.1-.5-.1-.1-.3-.1-.5.1 0 0 0 .1-.1.1v.5c.1.3.3.5.5.5zM70.4 70.8s.1.1.2.1.1-.1.1-.2c.1-.1.1-.2.2-.3.1-.2.1-.3.1-.5 0-.1-.3-.2-.5-.1l-.1.1c-.1.1-.2.3-.3.4.1.2.1.4.3.5zM72.4 70.5c.1 0 .1 0 .2-.1v-.2c0-.1-.1-.2-.1-.4s-.1-.4-.2-.4c-.1-.1-.4 0-.4.2v.1c0 .2 0 .3.1.5-.1.2.1.3.4.3zM73.7 70.2c.1 0 .1 0 .2-.1s.1-.1 0-.2v-.4c0-.2 0-.4-.1-.5-.1-.1-.3-.1-.5.1 0 0 0 .1-.1.1v.5c.1.3.3.5.5.5zM74.9 69.9s.1.1.2.1.1-.1.1-.2c.1-.1.1-.2.2-.3.1-.2.1-.3.1-.5 0-.1-.3-.2-.5-.1l-.1.1c-.1.1-.2.3-.3.4 0 .2.1.4.3.5zM76.8 69.6c.1 0 .1 0 .2-.1v-.2c0-.1-.1-.2-.1-.4s-.1-.4-.2-.4c-.1-.1-.4 0-.4.2v.1c0 .2 0 .3.1.5 0 .2.2.3.4.3zM78.2 69.3c.1 0 .1 0 .2-.1s.1-.1 0-.2v-.4c0-.2 0-.4-.1-.5-.1-.1-.3-.1-.5.1 0 0 0 .1-.1.1v.5c.1.3.3.5.5.5zM79.3 69s.1.1.2.1.1-.1.1-.2c.1-.1.1-.2.2-.3.1-.2.1-.3.1-.5 0-.1-.3-.2-.5-.1l-.1.1c-.1.1-.2.3-.3.4.1.2.2.4.3.5zM81.3 68.7c.1 0 .1 0 .2-.1v-.2c0-.1-.1-.2-.1-.4s-.1-.4-.2-.4c-.1-.1-.4 0-.4.2v.1c0 .2 0 .3.1.5 0 .2.2.3.4.3zM82.7 67.3c-.1-.1-.3-.1-.5.1 0 0 0 .1-.1.1v.5s0 .1.1.1c.2-.2.4-.4.6-.5 0-.1 0-.2-.1-.3zM59.8 74c0 .2.1.4.2.6 0 0 .1.1.2.1s.1-.1.1-.2c.1-.1.1-.2.2-.3.1-.2.1-.3.1-.5 0-.1-.1-.2-.3-.2-.2.1-.3.2-.5.4.1-.1 0 0 0 .1zM62 74.2c.1 0 .1 0 .2-.1v-.2c0-.1-.1-.2-.1-.4s-.1-.4-.2-.4c-.1-.1-.4 0-.4.2v.1c0 .2 0 .3.1.5 0 .2.2.3.4.3zM63.3 73.9c.1 0 .1 0 .2-.1s.1-.1 0-.2v-.4c0-.2 0-.4-.1-.5-.1-.1-.3-.1-.5.1 0 0 0 .1-.1.1v.5c.1.3.3.5.5.5zM64.5 73.6s.1.1.2.1.1-.1.1-.2c.1-.1.1-.2.2-.3.1-.2.1-.3.1-.5 0-.1-.3-.2-.5-.1l-.1.1c-.1.1-.2.3-.3.4 0 .2.1.4.3.5zM66.5 73.3c.1 0 .1 0 .2-.1V73c0-.1-.1-.2-.1-.4s-.1-.4-.2-.4c-.1-.1-.4 0-.4.2v.1c0 .2 0 .3.1.5-.1.2.1.3.4.3zM67.8 73c.1 0 .1 0 .2-.1s.1-.1 0-.2v-.4c0-.2 0-.4-.1-.5-.1-.1-.3-.1-.5.1 0 0 0 .1-.1.1v.5c.1.3.3.5.5.5zM69 72.7s.1.1.2.1.1-.1.1-.2c.1-.1.1-.2.2-.3.1-.2.1-.3.1-.5 0-.1-.3-.2-.5-.1l-.1.1c-.1.1-.2.3-.3.4 0 .2.1.4.3.5zM70.9 72.4c.1 0 .1 0 .2-.1v-.2c0-.1-.1-.2-.1-.4s-.1-.4-.2-.4c-.1-.1-.4 0-.4.2v.1c0 .2 0 .3.1.5 0 .2.2.3.4.3zM72.3 72.1c.1 0 .1 0 .2-.1s.1-.1 0-.2v-.4c0-.2 0-.4-.1-.5-.1-.1-.3-.1-.5.1 0 0 0 .1-.1.1v.5c.1.3.3.5.5.5zM73.4 71.8s.1.1.2.1.1-.1.1-.2c.1-.1.1-.2.2-.3.1-.2.1-.3.1-.5 0-.1-.3-.2-.5-.1l-.1.1c-.1.1-.2.3-.3.4.1.2.2.4.3.5zM75.4 71.5c.1 0 .1 0 .2-.1v-.2c0-.1-.1-.2-.1-.4s-.1-.4-.2-.4c-.1-.1-.4 0-.4.2v.1c0 .2 0 .3.1.5 0 .2.2.3.4.3zM76.7 71.2c.1 0 .1 0 .2-.1.1 0 .1-.1.1-.1v-.4c0-.2 0-.4-.1-.5-.1-.1-.3-.1-.5.1 0 0 0 .1-.1.1v.5c.1.2.2.4.4.4zM77.9 70.9s.1.1.2.1.1-.1.1-.2c.1-.1.1-.2.2-.3.1-.2.1-.3.1-.5 0-.1-.3-.2-.5-.1l-.1.1c-.1.1-.2.3-.3.4.1.2.1.4.3.5zM79.7 69.5c-.1-.1-.4 0-.4.2v.1c0 .2 0 .3.1.5l.2.2c.2-.1.3-.3.5-.4V70c-.2-.3-.3-.4-.4-.5zM57 75.9v.5c.1.2.3.3.5.4.1 0 .1 0 .2-.1s.1-.1 0-.2v-.4c0-.2 0-.4-.1-.5 0 0-.1 0-.1-.1-.3.2-.4.3-.5.4zM58.6 76.5s.1.1.2.1.1-.1.1-.2c.1-.1.1-.2.2-.3.1-.2.1-.3.1-.5 0-.1-.3-.2-.5-.1l-.1.1c-.1.1-.2.3-.3.4 0 .1.1.3.3.5zM60.5 76.1c.1 0 .1 0 .2-.1v-.2c0-.1-.1-.2-.1-.4s-.1-.4-.2-.4c-.1-.1-.4 0-.4.2v.1c0 .2 0 .3.1.5 0 .2.2.3.4.3zM61.9 75.8c.1 0 .1 0 .2-.1s.1-.1 0-.2v-.4c0-.2 0-.4-.1-.5-.1-.1-.3-.1-.5.1 0 0 0 .1-.1.1v.5c.1.4.3.5.5.5zM63.1 75.6s.1.1.2.1.1-.1.1-.2c.1-.1.1-.2.2-.3.1-.2.1-.3.1-.5 0-.1-.3-.2-.5-.1l-.1.1c-.1.1-.2.3-.3.4 0 .1.1.3.3.5zM65 75.2c.1 0 .1 0 .2-.1v-.2c0-.1-.1-.2-.1-.4s-.1-.4-.2-.4c-.1-.1-.4 0-.4.2v.1c0 .2 0 .3.1.5 0 .2.2.3.4.3zM66.4 74.9c.1 0 .1 0 .2-.1s.1-.1 0-.2v-.4c0-.2 0-.4-.1-.5-.1-.1-.3-.1-.5.1 0 0 0 .1-.1.1v.5c.1.4.2.5.5.5zM67.5 74.7s.1.1.2.1.1-.1.1-.2c.1-.1.1-.2.2-.3.1-.2.1-.3.1-.5 0-.1-.3-.2-.5-.1l-.1.1c-.1.1-.2.3-.3.4.1.1.2.3.3.5zM69.5 74.3c.1 0 .1 0 .2-.1V74c0-.1-.1-.2-.1-.4s-.1-.4-.2-.4c-.1-.1-.4 0-.4.2v.1c0 .2 0 .3.1.5 0 .2.2.3.4.3zM70.8 74c.1 0 .1 0 .2-.1s.1-.1 0-.2v-.4c0-.2 0-.4-.1-.5-.1-.1-.3-.1-.5.1 0 0 0 .1-.1.1v.5c.1.4.3.5.5.5zM72 73.8s.1.1.2.1.1-.1.1-.2c.1-.1.1-.2.2-.3.1-.2.1-.3.1-.5 0-.1-.3-.2-.5-.1l-.1.1c-.1.1-.2.3-.3.4 0 .1.1.3.3.5zM74 73.4c.1 0 .1 0 .2-.1v-.2c0-.1-.1-.2-.1-.4s-.1-.4-.2-.4c-.1-.1-.4 0-.4.2v.1c0 .2 0 .3.1.5-.1.2.1.3.4.3zM75.3 73.1c.1 0 .1 0 .2-.1s.1-.1 0-.2v-.4c0-.2 0-.4-.1-.5-.1-.1-.3-.1-.5.1 0 0 0 .1-.1.1v.5c.1.4.3.5.5.5zM76.5 72.9s.1.1.2.1.1-.1.1-.2c.1-.1.1-.2.2-.3.1-.2.1-.3.1-.5 0-.1-.3-.2-.5-.1l-.1.1c-.1.1-.2.3-.3.4 0 .1.1.3.3.5zM56 78.7c.1 0 .1 0 .2-.1s.1-.1 0-.2V78c0-.2 0-.4-.1-.5-.1-.1-.3-.1-.5.1 0 0 0 .1-.1.1v.5c.1.3.3.4.5.5zM57.2 78.4s.1.1.2.1.1-.1.1-.2c.1-.1.1-.2.2-.3.1-.2.1-.3.1-.5 0-.1-.3-.2-.5-.1l-.1.1c-.1.1-.2.3-.3.4 0 .1.1.3.3.5zM59.1 78c.1 0 .1 0 .2-.1v-.2c0-.1-.1-.2-.1-.4s-.1-.4-.2-.4c-.1-.1-.4 0-.4.2v.1c0 .2 0 .3.1.5 0 .2.2.3.4.3zM60.5 77.8c.1 0 .1 0 .2-.1s.1-.1 0-.2v-.4c0-.2 0-.4-.1-.5-.1-.1-.3-.1-.5.1 0 0 0 .1-.1.1v.5c.1.3.2.4.5.5zM61.6 77.5s.1.1.2.1.1-.1.1-.2c.1-.1.1-.2.2-.3.1-.2.1-.3.1-.5 0-.1-.3-.2-.5-.1l-.1.1c-.1.1-.2.3-.3.4.1.1.2.3.3.5zM63.6 77.1c.1 0 .1 0 .2-.1v-.2c0-.1-.1-.2-.1-.4s-.1-.4-.2-.4c-.1-.1-.4 0-.4.2v.1c0 .2 0 .3.1.5 0 .2.2.3.4.3zM64.9 76.9c.1 0 .1 0 .2-.1s.1-.1 0-.2v-.4c0-.2 0-.4-.1-.5-.1-.1-.3-.1-.5.1 0 0 0 .1-.1.1v.5c.1.3.3.4.5.5zM66.1 76.6s.1.1.2.1.1-.1.1-.2c.1-.1.1-.2.2-.3.1-.2.1-.3.1-.5 0-.1-.3-.2-.5-.1l-.1.1c-.1.1-.2.3-.3.4 0 .1.1.3.3.5zM68 76.2c.1 0 .1 0 .2-.1v-.2c0-.1-.1-.2-.1-.4s-.1-.4-.2-.4c-.1-.1-.4 0-.4.2v.1c0 .2 0 .3.1.5 0 .2.2.3.4.3zM69.4 76c.1 0 .1 0 .2-.1s.1-.1 0-.2v-.4c0-.2 0-.4-.1-.5-.1-.1-.3-.1-.5.1 0 0 0 .1-.1.1v.5c.1.3.3.4.5.5zM70.6 75.7s.1.1.2.1.1-.1.1-.2c.1-.1.1-.2.2-.3.1-.2.1-.3.1-.5 0-.1-.3-.2-.5-.1l-.1.1c-.1.1-.2.3-.3.4 0 .1.1.3.3.5zM72.5 75.3c.1 0 .1 0 .2-.1V75c0-.1-.1-.2-.1-.4s-.1-.4-.2-.4c-.1-.1-.4 0-.4.2v.1c0 .2 0 .3.1.5 0 .2.2.3.4.3zM73.9 75.1c.1 0 .1 0 .2-.1s.1-.1 0-.2v-.4c0-.2 0-.4-.1-.5-.1-.1-.3-.1-.5.1 0 0 0 .1-.1.1v.5c.1.3.2.4.5.5zM75.2 73.7l-.1.1c-.1.1-.2.3-.3.4 0 .2.1.4.2.6.2-.2.4-.4.5-.6 0-.1.1-.2 0-.3.1-.2-.1-.3-.3-.2zM54.5 80.6c.1 0 .1 0 .2-.1s.1-.1 0-.2v-.4c0-.2 0-.4-.1-.5-.1-.1-.3-.1-.5.1 0 0 0 .1-.1.1v.5c.2.3.3.4.5.5zM55.7 80.3s.1.1.2.1.1-.1.1-.2c.1-.1.1-.2.2-.3.1-.2.1-.3.1-.5 0-.1-.3-.2-.5-.1l-.1.1c-.1.1-.2.3-.3.4.1.1.1.3.3.5zM57.7 79.9c.1 0 .1 0 .2-.1v-.2c0-.1-.1-.2-.1-.4s-.1-.4-.2-.4c-.1-.1-.4 0-.4.2v.1c0 .2 0 .3.1.5-.1.2.1.3.4.3zM59 79.7c.1 0 .1 0 .2-.1s.1-.1 0-.2V79c0-.2 0-.4-.1-.5-.1-.1-.3-.1-.5.1 0 0 0 .1-.1.1v.5c.1.3.3.4.5.5zM60.2 79.4s.1.1.2.1.1-.1.1-.2c.1-.1.1-.2.2-.3.1-.2.1-.3.1-.5 0-.1-.3-.2-.5-.1l-.1.1c-.1.1-.2.3-.3.4 0 .1.1.3.3.5zM62.1 79c.1 0 .1 0 .2-.1v-.2c0-.1-.1-.2-.1-.4s-.1-.4-.2-.4c-.1-.1-.4 0-.4.2v.1c0 .2 0 .3.1.5 0 .2.2.3.4.3zM63.5 78.8c.1 0 .1 0 .2-.1s.1-.1 0-.2v-.4c0-.2 0-.4-.1-.5-.1-.1-.3-.1-.5.1 0 0 0 .1-.1.1v.5c.1.3.3.4.5.5zM64.7 78.5s.1.1.2.1.1-.1.1-.2c.1-.1.1-.2.2-.3.1-.2.1-.3.1-.5 0-.1-.3-.2-.5-.1l-.1.1c-.1.1-.2.3-.3.4 0 .1.1.3.3.5zM66.6 78.1c.1 0 .1 0 .2-.1v-.2c0-.1-.1-.2-.1-.4s-.1-.4-.2-.4c-.1-.1-.4 0-.4.2v.1c0 .2 0 .3.1.5 0 .2.2.3.4.3zM68 77.9c.1 0 .1 0 .2-.1s.1-.1 0-.2v-.4c0-.2 0-.4-.1-.5-.1-.1-.3-.1-.5.1 0 0 0 .1-.1.1v.5c.1.3.2.4.5.5zM69.1 77.6s.1.1.2.1.1-.1.1-.2c.1-.1.1-.2.2-.3.1-.2.1-.3.1-.5 0-.1-.3-.2-.5-.1l-.1.1c-.1.1-.2.3-.3.4.1.1.2.3.3.5zM71.1 77.2c.1 0 .1 0 .2-.1v-.2c0-.1-.1-.2-.1-.4s-.1-.4-.2-.4c-.1-.1-.4 0-.4.2v.1c0 .2 0 .3.1.5 0 .2.2.3.4.3zM72.4 77c.1 0 .1 0 .2-.1s.1-.1 0-.2v-.4c0-.2 0-.4-.1-.5-.1-.1-.3-.1-.5.1 0 0 0 .1-.1.1v.5c.1.3.3.4.5.5zM74.2 75.8c0-.1-.3-.2-.5-.1l-.1.1c-.1.1-.2.3-.3.4 0 .2.1.4.2.6.2-.3.4-.6.6-.8l.1-.2zM53.1 82.5c.1 0 .1 0 .2-.1s.1-.1 0-.2v-.4c0-.2 0-.4-.1-.5-.1-.1-.3-.1-.5.1 0 0 0 .1-.1.1v.5c.1.3.3.5.5.5zM54.3 82.2s.1.1.2.1.1-.1.1-.2c.1-.1.1-.2.2-.3.1-.2.1-.3.1-.5 0-.1-.3-.2-.5-.1l-.1.1c-.1.1-.2.3-.3.4 0 .2.1.4.3.5zM56.2 81.9c.1 0 .1 0 .2-.1v-.2c0-.1-.1-.2-.1-.4s-.1-.4-.2-.4c-.1-.1-.4 0-.4.2v.1c0 .2 0 .3.1.5 0 .2.2.3.4.3zM57.6 81.6c.1 0 .1 0 .2-.1s.1-.1 0-.2v-.4c0-.2 0-.4-.1-.5-.1-.1-.3-.1-.5.1 0 0 0 .1-.1.1v.5c.1.3.3.5.5.5zM58.7 81.3s.1.1.2.1.1-.1.1-.2c.1-.1.1-.2.2-.3.1-.2.1-.3.1-.5 0-.1-.3-.2-.5-.1l-.1.1c-.1.1-.2.3-.3.4.1.2.2.4.3.5zM60.7 81c.1 0 .1 0 .2-.1v-.2c0-.1-.1-.2-.1-.4s-.1-.4-.2-.4c-.1-.1-.4 0-.4.2v.1c0 .2 0 .3.1.5 0 .2.2.3.4.3zM62 80.7c.1 0 .1 0 .2-.1s.1-.1 0-.2V80c0-.2 0-.4-.1-.5-.1-.1-.3-.1-.5.1 0 0 0 .1-.1.1v.5c.2.3.3.5.5.5zM63.2 80.4s.1.1.2.1.1-.1.1-.2c.1-.1.1-.2.2-.3.1-.2.1-.3.1-.5 0-.1-.3-.2-.5-.1l-.1.1c-.1.1-.2.3-.3.4.1.2.1.4.3.5zM65.2 80.1c.1 0 .1 0 .2-.1v-.2c0-.1-.1-.2-.1-.4s-.1-.4-.2-.4c-.1-.1-.4 0-.4.2v.1c0 .2 0 .3.1.5-.1.2.1.3.4.3zM66.5 79.8c.1 0 .1 0 .2-.1s.1-.1 0-.2v-.4c0-.2 0-.4-.1-.5-.1-.1-.3-.1-.5.1 0 0 0 .1-.1.1v.5c.1.3.3.5.5.5zM67.7 79.5s.1.1.2.1.1-.1.1-.2c.1-.1.1-.2.2-.3.1-.2.1-.3.1-.5 0-.1-.3-.2-.5-.1l-.1.1c-.1.1-.2.3-.3.4 0 .2.1.4.3.5zM69.6 79.2c.1 0 .1 0 .2-.1v-.2c0-.1-.1-.2-.1-.4s-.1-.4-.2-.4c-.1-.1-.4 0-.4.2v.1c0 .2 0 .3.1.5 0 .2.2.3.4.3zM71 78.9c.1 0 .1 0 .2-.1s.1-.1 0-.2v-.4c0-.2 0-.4-.1-.5-.1-.1-.3-.1-.5.1 0 0 0 .1-.1.1v.5c.1.3.3.5.5.5zM72.3 77.5l-.1.1c-.1.1-.2.3-.3.4 0 .1 0 .3.1.4.2-.2.5-.4.7-.6 0 0 0-.1.1-.1v-.1c-.1-.1-.3-.2-.5-.1z" fill="#c78000" data-color="5"/><path d="M41 160.3c.6-1.7 2.7-4.7 2.9-6.3 8.3-1.4 18.5-6.1 20.4-14.6-1 .9-14.8 7.6-17.8 8.3 1-2.7 2-5.4 1.7-8.4-2.7 3.7-5.7 6.7-9.7 8.8 1-3.4-.7-6.7-.7-10.1-1.3 3-3.3 5.7-6 7.3-1.2.6-4.9-3.5-5.9-4.4 0 .7 2.2 5.6 2.5 6.3 1.8 3.5 5.8 8.9 3.8 16.9-.3 1-.5 2-.7 3-.4 2.4-.5 4.8-.5 7.2 0 2.2.1 4.5 1 6.5.8 2 2.5 3.8 4.6 4.3 2.1.4 4.6-.8 5.1-3 .3-1.5-.3-3-.8-4.5-1.6-4.6-1.8-9.6-.7-14.3.2-1.2.5-2.1.8-3z" fill="#1b7b58" data-color="6"/></svg>