<?xml version="1.0" encoding="utf-8"?>
<svg version="1.1" id="Layer_1" xmlns="http://www.w3.org/2000/svg" xmlns:xlink="http://www.w3.org/1999/xlink" x="0px" y="0px"
	 viewBox="0 0 1151.259 1662.803" enable-background="new 0 0 1151.259 1662.803" xml:space="preserve">
<path d="M1124.079,840.752c-14.955,54.198-98.374,89.11-162.78,94.404c-18.66,1.535-34.435,4.535-38.379,14.558
	c-6.961,17.672,6.414,37.153,26.468,53.819c11.152,9.264,17.822,19.428,20.292,30.88c12.466,57.877-16.604,94.862-74.552,115.137
	c18.166,10.102,30.377,24.792,34.409,44.114c9.696,46.443-9.282,82.219-50.731,104.991c-13.578,8.505-28.639,16.031-35.582,29.115
	c-3.423,6.441,5.444,26.839,19.993,56.466c20.76,60.842,8.09,127.048-38.229,164.103c-54.542,43.637-125.504,60.383-207.044,56.466
	c-70.909-4.164-140.414-9.987-208.508-13.234c-75.743-3.609-138.314,13.543-191.454,37.056
	c-23.733,10.499-51.11-10.005-82.343-40.876c-18.122-17.901-31.7-41.476-27.65-79.996c2.17-20.61-10.067-38.688-38.229-52.937
	C36.523,1438,14.846,1416.852,28,1384.234c27.995-69.462,99.6-201.856,124.331-272.544
	c75.355-215.355,248.281-659.14,391.21-823.684c67.053-50.44,144.517-106.138,164.544-132.783
	c10.587-14.558-0.159-29.962-3.97-51.613c-3.353-19.048,13.446-31.356,31.321-41.467c38.988-22.066,77.058-36.897,112.49-28.233
	c23.751,5.805,40.849,30.633,54.26,63.524c15.21,37.32,19.031,78.523,9.264,123.078c-20.204,92.154-35.838,171.956-24.704,217.04
	c25.956,105.07,90.433,200.718,217.04,323.795C1126.064,783.007,1131.401,814.205,1124.079,840.752z"/>
</svg>
