<?xml version="1.0"?><svg fill="#ffffff" xmlns="http://www.w3.org/2000/svg"  viewBox="0 0 100 100" width="100px" height="100px">    <path d="M 30.960938 17.654297 C 23.792938 17.654297 17.960938 23.486297 17.960938 30.654297 L 17.960938 69.654297 C 17.960938 76.822297 23.792938 82.654297 30.960938 82.654297 L 69.960938 82.654297 C 77.128938 82.654297 82.960938 76.822297 82.960938 69.654297 L 82.960938 30.654297 C 82.960938 23.485297 77.128938 17.654297 69.960938 17.654297 L 30.960938 17.654297 z M 30.960938 19.654297 L 69.960938 19.654297 C 76.025937 19.654297 80.960938 24.589297 80.960938 30.654297 L 80.960938 69.654297 C 80.960938 75.719297 76.025937 80.654297 69.960938 80.654297 L 30.960938 80.654297 C 24.895937 80.654297 19.960938 75.719297 19.960938 69.654297 L 19.960938 30.654297 C 19.960938 24.589297 24.895937 19.654297 30.960938 19.654297 z M 33.798828 22.652344 C 27.822828 22.652344 22.960937 27.514234 22.960938 33.490234 L 22.960938 66.816406 C 22.960938 72.792406 27.822828 77.652344 33.798828 77.652344 L 67.123047 77.652344 C 73.099047 77.652344 77.960938 72.792406 77.960938 66.816406 L 77.960938 48.154297 C 77.960938 47.877297 77.736938 47.654297 77.460938 47.654297 C 77.184938 47.654297 76.960938 47.878297 76.960938 48.154297 L 76.960938 66.816406 C 76.960938 72.240406 72.547047 76.654297 67.123047 76.654297 L 33.798828 76.654297 C 28.374828 76.654297 23.960937 72.240406 23.960938 66.816406 L 23.960938 33.490234 C 23.960938 28.066234 28.374828 23.652344 33.798828 23.652344 L 67.460938 23.652344 C 67.736937 23.652344 67.960938 23.428344 67.960938 23.152344 C 67.960938 22.876344 67.736938 22.652344 67.460938 22.652344 L 33.798828 22.652344 z M 50 34.695312 C 46.021 34.695312 45.535562 34.706156 43.976562 34.785156 C 42.517562 34.848156 41.378109 35.064281 40.287109 35.488281 C 39.202109 35.906281 38.356969 36.455625 37.542969 37.265625 C 36.727969 38.075625 36.174906 38.917141 35.753906 39.994141 C 35.327906 41.078141 35.108922 42.2085 35.044922 43.6875 C 34.977922 45.2135 34.955078 45.727484 34.955078 49.646484 C 34.955078 53.601484 34.967875 54.084813 35.046875 55.632812 C 35.109875 57.083813 35.327906 58.215781 35.753906 59.300781 C 36.174906 60.378781 36.727969 61.219297 37.542969 62.029297 C 38.356969 62.839297 39.202109 63.387641 40.287109 63.806641 C 41.377109 64.229641 42.516813 64.446719 44.007812 64.511719 C 45.542813 64.577719 46.059 64.599609 50 64.599609 C 53.979 64.599609 54.465438 64.588766 56.023438 64.509766 C 57.482438 64.446766 58.619938 64.230641 59.710938 63.806641 C 60.794938 63.388641 61.642031 62.839297 62.457031 62.029297 C 63.272031 61.219297 63.823141 60.377781 64.244141 59.300781 C 64.670141 58.216781 64.889125 57.085328 64.953125 55.611328 C 65.020125 54.085328 65.044922 53.571438 65.044922 49.648438 C 65.044922 45.692437 65.033125 45.209109 64.953125 43.662109 C 64.890125 42.210109 64.670141 41.079141 64.244141 39.994141 C 63.823141 38.916141 63.272031 38.073672 62.457031 37.263672 C 61.642031 36.453672 60.796891 35.907281 59.712891 35.488281 C 58.622891 35.065281 57.483187 34.848203 55.992188 34.783203 C 54.457188 34.717203 53.941 34.695312 50 34.695312 z M 50.001953 35.695312 C 53.920953 35.695312 54.433422 35.716203 55.982422 35.783203 C 57.329422 35.842203 58.368516 36.039875 59.353516 36.421875 C 60.302516 36.787875 61.042906 37.265656 61.753906 37.972656 C 62.465906 38.680656 62.948406 39.415422 63.316406 40.357422 L 63.316406 40.359375 C 63.700406 41.337375 63.897078 42.367031 63.955078 43.707031 C 64.034078 45.235031 64.046875 45.715484 64.046875 49.646484 C 64.045875 53.549484 64.022078 54.057844 63.955078 55.589844 C 63.896078 56.926844 63.699453 57.9595 63.314453 58.9375 C 62.946453 59.8785 62.464953 60.614266 61.751953 61.322266 C 61.040953 62.029266 60.299609 62.507047 59.349609 62.873047 C 58.363609 63.255047 57.325562 63.453719 55.976562 63.511719 C 54.437562 63.589719 53.955 63.599609 50 63.599609 C 46.08 63.599609 45.567531 63.578719 44.019531 63.511719 C 42.672531 63.452719 41.633438 63.255047 40.648438 62.873047 C 39.698437 62.506047 38.959047 62.029266 38.248047 61.322266 C 37.536047 60.614266 37.054547 59.878547 36.685547 58.935547 C 36.301547 57.956547 36.104875 56.925938 36.046875 55.585938 C 35.968875 54.056938 35.957031 53.577484 35.957031 49.646484 C 35.957031 45.748484 35.979875 45.241078 36.046875 43.705078 C 36.105875 42.368078 36.3025 41.334422 36.6875 40.357422 C 37.0555 39.415422 37.536047 38.679656 38.248047 37.972656 C 38.959047 37.265656 39.700391 36.787875 40.650391 36.421875 C 41.636391 36.039875 42.676391 35.841203 44.025391 35.783203 C 45.565391 35.705203 46.046953 35.695312 50.001953 35.695312 z M 77.460938 37.654297 C 77.184938 37.654297 76.960938 37.877297 76.960938 38.154297 L 76.960938 40.154297 C 76.960938 40.430297 77.184937 40.654297 77.460938 40.654297 C 77.736937 40.654297 77.960938 40.430297 77.960938 40.154297 L 77.960938 38.154297 C 77.960938 37.878297 77.736938 37.654297 77.460938 37.654297 z M 58.029297 39.195312 C 56.793297 39.195312 55.787109 40.195781 55.787109 41.425781 C 55.787109 42.655781 56.793297 43.65625 58.029297 43.65625 C 59.265297 43.65625 60.271484 42.655781 60.271484 41.425781 C 60.272484 40.195781 59.266297 39.195312 58.029297 39.195312 z M 58.029297 40.195312 C 58.714297 40.195312 59.271484 40.746781 59.271484 41.425781 C 59.272484 42.104781 58.715297 42.65625 58.029297 42.65625 C 57.344297 42.65625 56.787109 42.104781 56.787109 41.425781 C 56.787109 40.746781 57.344297 40.195313 58.029297 40.195312 z M 77.460938 41.654297 C 77.184938 41.654297 76.960938 41.878297 76.960938 42.154297 L 76.960938 46.154297 C 76.960938 46.430297 77.184937 46.654297 77.460938 46.654297 C 77.736937 46.654297 77.960938 46.430297 77.960938 46.154297 L 77.960938 42.154297 C 77.960938 41.877297 77.736938 41.654297 77.460938 41.654297 z M 49.988281 41.720703 C 45.591281 41.720703 42.013672 45.275484 42.013672 49.646484 C 42.013672 54.017484 45.591281 57.574219 49.988281 57.574219 C 54.385281 57.574219 57.962891 54.017484 57.962891 49.646484 C 57.962891 45.276484 54.385281 41.720703 49.988281 41.720703 z M 49.988281 42.720703 C 53.834281 42.720703 56.962891 45.826484 56.962891 49.646484 C 56.962891 53.466484 53.834281 56.574219 49.988281 56.574219 C 46.142281 56.574219 43.013672 53.466484 43.013672 49.646484 C 43.013672 45.827484 46.142281 42.720703 49.988281 42.720703 z"/></svg>