<?xml version="1.0" encoding="iso-8859-1"?>
<!-- Generator: Adobe Illustrator 16.0.0, SVG Export Plug-In . SVG Version: 6.00 Build 0)  -->
<!DOCTYPE svg PUBLIC "-//W3C//DTD SVG 1.1//EN" "http://www.w3.org/Graphics/SVG/1.1/DTD/svg11.dtd">
<svg version="1.1" id="Capa_1" xmlns="http://www.w3.org/2000/svg" xmlns:xlink="http://www.w3.org/1999/xlink" x="0px" y="0px"
	 width="40.646px" height="40.646px" viewBox="0 0 40.646 40.646" style="enable-background:new 0 0 40.646 40.646;"
	 xml:space="preserve">
<g>
	<g id="_x33__91_">
		<g>
			<path d="M10.212,14.333c1.222,4.667,5.166,8.965,10.163,8.965c5.072,0,9.08-4.279,10.332-8.934
				c0.477-0.054,0.871-0.417,0.914-0.912l0.158-1.839c0.041-0.479-0.262-0.891-0.697-1.041c-0.008-0.11-0.012-0.221-0.022-0.33
				c-0.094-4.215-0.827-7.621-4.144-9.026c-3.504-1.485-6.59-1.505-8.856-0.624c-0.148,0.059-0.532,0.57-0.683,0.663
				c-0.151,0.093-0.945-0.169-1.246-0.099c-4.97,0.71-6.609,5.393-6.248,9.044c-0.011,0.102-0.018,0.205-0.026,0.308
				c-0.48,0.121-0.825,0.557-0.78,1.066l0.157,1.839C9.277,13.932,9.705,14.309,10.212,14.333z M11.27,10.69
				c2.176-0.797,6.364-2.464,6.818-3.34c1.904,1.977,8.627,3.089,11.579,3.46c0.012,0.19,0.029,0.378,0.029,0.57
				c0,4.853-4.072,10.493-9.323,10.493c-5.23,0-9.139-5.539-9.139-10.493C11.236,11.147,11.254,10.919,11.27,10.69z"/>
			<path d="M28.385,21.626c-0.261-0.04-0.519,0.019-0.685,0.086l-4.188,5.663l-3.176-2.533l-0.02,0.018v0.017l-0.005-0.005
				l-3.176,2.533l-4.187-5.662c-0.167-0.067-0.424-0.127-0.685-0.086c-7.91,1.113-8.411,18.979-8.411,18.979l16.478,0.012v-0.029
				l16.463-0.012C36.796,40.605,36.294,22.738,28.385,21.626z"/>
		</g>
	</g>
</g>
<g>
</g>
<g>
</g>
<g>
</g>
<g>
</g>
<g>
</g>
<g>
</g>
<g>
</g>
<g>
</g>
<g>
</g>
<g>
</g>
<g>
</g>
<g>
</g>
<g>
</g>
<g>
</g>
<g>
</g>
</svg>
